<svg xmlns="http://www.w3.org/2000/svg" viewBox="0 0 250 203.14">
  <defs>
    <style>
      .cls-1 {
        fill: #222;
      }
    </style>
  </defs>
  <title>twitter</title>
      <g><path
        class="cls-1"
        d="M78.62,203.14C173,203.14,224.56,125,224.56,57.2c0-2.22,0-4.43-.15-6.63A104.4,104.4,0,0,0,250,24a102.24,102.24,0,0,1-29.46,8.07A51.42,51.42,0,0,0,243.1,3.72a102.53,102.53,0,0,1-32.57,12.45A51.34,51.34,0,0,0,123.12,63,145.62,145.62,0,0,1,17.4,9.35,51.33,51.33,0,0,0,33.28,77.83,50.84,50.84,0,0,1,10,71.41v.65a51.31,51.31,0,0,0,41.15,50.28,51.2,51.2,0,0,1-23.16.88,51.34,51.34,0,0,0,47.92,35.62,102.9,102.9,0,0,1-63.7,22A103.8,103.8,0,0,1,0,180.1a145.22,145.22,0,0,0,78.62,23"/></g>
</svg>
