<svg xmlns="http://www.w3.org/2000/svg" viewBox="0 0 202.5 62.55">
  <defs>
    <style>
      .cls-1,
      .cls-3 {
        fill: #231815;
      }
      .cls-1 {
        fill-rule: evenodd;
      }
      .cls-2 {
        fill: #ae1e24;
      }
    </style>
  </defs><path
    class="cls-1"
    d="M5.42,20.6a1.07,1.07,0,0,1,.22-.11A.73.73,0,0,1,6,20.6c.25.1.48.19.55.23a1.93,1.93,0,0,0,.73.21,114.42,114.42,0,0,1,12.41-.82,41.57,41.57,0,0,1,6.35.44,16.07,16.07,0,0,0,2.75.21c1,0,1.45-.28,2.14-1.35.08-.18.14-.25.25-.3a.39.39,0,0,1,.53.37,1.27,1.27,0,0,1-.14.48,6.76,6.76,0,0,1-1.76,2.84,3.52,3.52,0,0,1-1.57.84c-.44.07-.46.06-2.22-.76a14.05,14.05,0,0,0-4.66-.75c0,1.16.05,2.13.05,2.64A12.13,12.13,0,0,1,21,28.71a3.09,3.09,0,0,1-3.32,2.19A7.51,7.51,0,0,1,13.41,29a8.61,8.61,0,0,1-2-2.53.53.53,0,0,1,0-.21.32.32,0,0,1,.38-.3,1.14,1.14,0,0,1,.26.12,5.46,5.46,0,0,0,3.79,2c1.09,0,1.61-.36,1.8-1.24a12.34,12.34,0,0,0,.21-2.23c0-.94,0-1.06-.09-2.4-6.78,0-11,.85-12.75,2.45a1,1,0,0,1-.2.07.69.69,0,0,1-.18,0,1.48,1.48,0,0,1-.4-1.07,3.93,3.93,0,0,1,1.22-3"/><path
    class="cls-1"
    d="M6.54,5.76c0-1.88.63-3.46,1.35-3.58.33-.05.35,0,1,.52l.43.37a.71.71,0,0,0,.65.25c2.29-.25,3.14-.32,6.63-.5a1.1,1.1,0,0,0,.17-.67A15.85,15.85,0,0,0,16.59.24,12,12,0,0,1,19.08,0a14.46,14.46,0,0,1,2,.29V2.67c2,.09,2,.09,3.55.09a27.27,27.27,0,0,0,3.77-.3A2.62,2.62,0,0,0,30.73.89.49.49,0,0,1,30.9.81a.43.43,0,0,1,.52.32,1.22,1.22,0,0,1,0,.27,3.24,3.24,0,0,1-.82,1.82,20.14,20.14,0,0,0-1.14,1.69c-.3.48-.66.77-1,.77a4.43,4.43,0,0,1-1.28-.32,27,27,0,0,0-7.14-.85A48.17,48.17,0,0,0,7.85,5.89,5.79,5.79,0,0,1,7.2,6a.87.87,0,0,1-.55-.12Z"/><path
    class="cls-1"
    d="M10.16,7.53c0-.21,0-.22.29-.22.61.13,1.17.27,1.36.32a4.43,4.43,0,0,0,.61.14,7.22,7.22,0,0,0,2-.34A24.6,24.6,0,0,1,19,7l1.58,0a10.5,10.5,0,0,1,2.62.25,2.77,2.77,0,0,0,1,.08,3.94,3.94,0,0,0,.9-.43,1.43,1.43,0,0,1,.49-.23c.24,0,.29,0,.89.44l.76.54c.42.39.77.69,1,.9a1.3,1.3,0,0,1,.11.42,1.09,1.09,0,0,1-.09.33c-1.15,1.09-1.2,1.29-1.86,7.77A2.93,2.93,0,0,1,26,18.21c-.12.18-.22.21-.61.21a5.66,5.66,0,0,1-2.15-.49l-.51-.1h-.16c-.16,0-2.36.12-2.6.12s-.33,0-4.08-.27l-.66,0a3.34,3.34,0,0,0-2.13.72,5.11,5.11,0,0,1-1.39-.66c0-.91.07-2.11.07-2.48a15.2,15.2,0,0,0-1.63-7.69m4.23,4a12.24,12.24,0,0,1,2.13-.21l2.43.15a5.22,5.22,0,0,0,.65,0,6.62,6.62,0,0,0,1.29-.24l.49-.2c.28-.07.6.18.88.67a2.73,2.73,0,0,1,.44,1.16.73.73,0,0,1-.54.69c-.33,0-.54,0-.74,0s-.73,0-1.26-.1c-1-.12-1.63-.2-1.89-.22l-1.09-.07-.53-.07a4.81,4.81,0,0,0-.93,0c-.9.08-1.16.19-1.31.56a8.31,8.31,0,0,0-.06.84c0,.94.17,1.29.63,1.29.67,0,1.64-.06,3.16-.18.44,0,1.16-.05,2.15-.05a19.82,19.82,0,0,1,3.42.34,1,1,0,0,0,.16-.67c0-.35,0-.85,0-.9.1-1.36.2-2.61.33-4.37-.2-.68-.2-.68-5.94-1-.41,0-2.72.1-3.3.18-.77.11-1,.42-1,1.15a3.57,3.57,0,0,0,.38,1.23"/><path
    class="cls-1"
    d="M22.88,25.39a1.15,1.15,0,0,1,0-.24.36.36,0,0,1,.37-.28.88.88,0,0,1,.24.1c1.75,2.31,3.36,3.13,5.64,2.9a3.17,3.17,0,0,0,2.15-1c1.26-1.36,1.89-3.24,2.22-6.54a72.81,72.81,0,0,0,.25-8.62c0-3.44-.21-5.51-.66-6.43a1.56,1.56,0,0,0-.79-.77.85.85,0,0,1-.15-.38.9.9,0,0,1,.14-.4,2.43,2.43,0,0,1,.92-.94A15.82,15.82,0,0,1,39.73,1.5c.36,0,2.29.17,2.64.24a18.92,18.92,0,0,0,2.37.33,4.25,4.25,0,0,0,1.5-.59.47.47,0,0,1,.21-.09c.08,0,.14,0,.35.15,1.64,1.83,2.35,2.77,2.4,3.22,0,.23-.06.38-.31.57-1.34,1-1.47,1.79-1.47,8.52A73.52,73.52,0,0,0,48,23.77l.09,1.91.06,1a12.59,12.59,0,0,1-.53,3.58A1.44,1.44,0,0,1,46,31.32a1.57,1.57,0,0,1-1.37-1.17c-.11-.36-.11-.36-.12-3.32l0-2.09c0-2.79,0-2.79-.11-3.18s-.91-.82-1.63-.72l-.7.12a9.38,9.38,0,0,1-1.59.13A10.1,10.1,0,0,1,39.23,21l-1.44,0-.85,0c-.37,0-.59.25-.64.72-.34,3.41-.57,4.42-1.3,5.82a5.76,5.76,0,0,1-4.95,3.37c-3.22,0-5.54-1.77-7.17-5.47M36.15,9.86a21.68,21.68,0,0,1,3.3-.24c.63,0,3.35.09,4.07.13,1.37,0,1.51-.22,1.57-2.57l.13-1.1a4.52,4.52,0,0,0-.08-1C45,4.31,44,3.94,42.49,4h-.94A11.79,11.79,0,0,0,39,4.08a4.85,4.85,0,0,1-.65,0c-1.42,0-2.17.35-2.34,1.15a11.33,11.33,0,0,0-.14,1.82,25,25,0,0,0,.28,2.79m.29,9a8.16,8.16,0,0,1,3-.5h1.14l1.86,0c1.1,0,1.1,0,2.13,0,.24-2.34.34-3.59.34-4.56,0-1.75-.2-2-2-2l-1.09-.1a21,21,0,0,0-2.4-.12,22.86,22.86,0,0,0-2.45.29,1.24,1.24,0,0,0-.81.51c.17,2,.23,3.07.23,3.94s0,1.17-.08,2.43Z"/><path
    class="cls-1"
    d="M59.82,4.93c.23-.33.48-.68.69-1a10.82,10.82,0,0,0,1.06-1.64c.1-.13.16-.16.26-.16s.16,0,.25.16l.27.34A2.6,2.6,0,0,0,65,3.92c.35,0,.35,0,2.45-.28,3-.36,6.92-.67,8.64-.67a47.74,47.74,0,0,1,9.32.59,9.33,9.33,0,0,0,1.51.09c.76,0,.76,0,3.07-1.39a.85.85,0,0,1,.22,0,1.12,1.12,0,0,1,.36.14,8.1,8.1,0,0,1,2,2.09c.8,1,.93,1.21,1,1.59,0,.2,0,.32-.26.57-.94,1.15-1,1.36-1,7.58.34,10.46.34,10.46.34,12.21,0,2.43-.54,3.64-1.69,3.78-.88.12-1,.06-2-1.26-.34-.44-.45-.5-1.14-.65H85.36l-3.19,0-7,.15L71,28.46c-1.23,0-2,.05-2.23.05-3.57-.11-4.64.2-6.17,1.77a.93.93,0,0,1-.25.2c-.11,0-.21,0-.37-.12-.19-.36-.33-.61-.41-.73L60,27.54a.62.62,0,0,1,0-.19c0-.13.07-.21.23-.26,1.26-.2,1.56-.81,1.56-3.11,0-.15,0-.15-.08-2.39l0-1.65-.21-4.64c0-1.24-.12-4.15-.11-4.63-.06-3.92-.32-4.87-1.55-5.74m4.83,21.24c5.32-.36,5.42-.37,8.17-.43,1.93,0,3.81-.06,5.65-.06,1,0,8.67.2,9.36.24,1.26.07,1.53-.25,1.42-1.7-.06-1.06-.09-1.83-.09-2.87,0-.3,0-1.2.07-2.39,0-.43,0-1,0-1.74.06-2.26.1-3.83.14-4.55.1-2.57.13-3.33.13-4.12,0-2-.32-2.47-1.6-2.47H87l-1,0c-1.67,0-3.5-.09-9.07-.43H75.22c-1.36,0-2.2,0-4.48.23L69.06,6l-.51,0A11.17,11.17,0,0,1,67,6a8.64,8.64,0,0,0-1.39,0,1.38,1.38,0,0,0-1.22.93,8.5,8.5,0,0,0-.16,2.21,24.84,24.84,0,0,0,.23,2.85c.09.91.23,4.14.23,5.29s-.17,5.36-.35,8.71c0,.23.08.28.29.24"/><path
    class="cls-1"
    d="M68.07,13.44a.64.64,0,0,1,.5-.17.47.47,0,0,1,.37.18c.18.74.78,1.09,1.85,1.09l.91,0c2.58-.22,4.36-.3,6.44-.3a19.4,19.4,0,0,1,4.19.35,5.42,5.42,0,0,0,1,.16,1.41,1.41,0,0,0,1.32-1.08.62.62,0,0,1,.13-.2c.29-.17.6.09.6.5v.3c-.37,2.57-.56,3-1.41,3.23a1.49,1.49,0,0,0-.9.49.89.89,0,0,1-.45.3.59.59,0,0,1-.27-.06,6.5,6.5,0,0,0-4-.91l-.84,0-1.31,0h-.8L74,17.2c-4.3,0-5,.22-6.18,2a.66.66,0,0,1-.25.11c-.26,0-.31-.06-.43-1a10.82,10.82,0,0,1,.14-1.26l.55-2.11.08-.44.2-1.06"/><path
    class="cls-1"
    d="M124,30.73a.5.5,0,0,1,0-.22.49.49,0,0,1,.09-.18l.25-.11.31-.12a6.1,6.1,0,0,0,3.2-3.86,16.2,16.2,0,0,0,.72-3.9c.07-1.09.25-5.11.25-5.73,0-.06,0-.33,0-.7-.06-.91-.11-1.74-.13-2.48-.1-5.42-.3-6.57-1.74-9.75l1.85-1.9c.06-.06.1-.08.15-.07l.13,0,.59.4a2.92,2.92,0,0,0,1.7.52,7,7,0,0,0,1,0c.46,0,.82-.05,1.17-.05h2.18c.34,0,2.43-.23,2.85-.31a9.32,9.32,0,0,0,2.7-1.17c.25-.2.43-.27.59-.22a1.23,1.23,0,0,1,.49.42,12.26,12.26,0,0,1,1.92,2.5.78.78,0,0,1,.11.37c0,.36-.34.61-.86.61a6.5,6.5,0,0,1-1.15-.17,5.85,5.85,0,0,0-1.07-.09,7.22,7.22,0,0,0-1.23.1c-1.29.19-3,.37-3.38.37h-1.46L134.07,5c-.48,0-1,.08-1.25.08h-.62l-.71,0c-.41,0-.71.17-.77.45s0,.18.45,2.28a15,15,0,0,1,.27,3.29v.72c.07.17.08.18.25.21a28.83,28.83,0,0,1,4.88-.4,48.44,48.44,0,0,1,6.48.35,6.21,6.21,0,0,0,.68,0c1.24,0,2.11-.64,2.86-2.11a4.52,4.52,0,0,0,.46-1.37c.28-.25.41-.3.61-.23a1,1,0,0,1,.26.2,2.8,2.8,0,0,1,0,.3,10,10,0,0,1-.65,3.27c-.83,2.21-1.71,3.35-2.6,3.35a2.19,2.19,0,0,1-1.15-.34c-1.67-.85-2-1-2.7-.89a1.46,1.46,0,0,0-1.3,1.21,13.09,13.09,0,0,0-.15,3.19,54.35,54.35,0,0,0,.38,5.49c.19,1.66.32,3.25.32,4a5.26,5.26,0,0,1-.69,2.78,1.26,1.26,0,0,1-1.11.52c-.64,0-.94-.26-1.27-1.11a6.18,6.18,0,0,1-.56-2.88c0-.41.07-1.62.15-2.47a34.76,34.76,0,0,0,.22-3.6,30.5,30.5,0,0,0-.6-6.88,1.72,1.72,0,0,0-1.79-1,5,5,0,0,0-2.36.55c-.34.22-.42.62-.42,2,0,.25,0,1.11.1,2.36,0,.77.05,1.21.05,2.13a23.07,23.07,0,0,1-.63,5.6,5.72,5.72,0,0,1-3.78,4.09,8.79,8.79,0,0,1-3.1.65.4.4,0,0,1-.35-.14"/><path
    class="cls-1"
    d="M114.37,19.54l0-2.44c-.39,0-.59,0-.92,0a11.74,11.74,0,0,0-1.62.14,4.59,4.59,0,0,1-.76,0l-1.69-.11c-.33,0-.62,0-1,0a6.76,6.76,0,0,0-3,.55.7.7,0,0,1-.81-.39,1.2,1.2,0,0,1,0-.27,3.85,3.85,0,0,1,1-1.53,1.48,1.48,0,0,1,1.2-.58,2.85,2.85,0,0,1,.5.23,3.15,3.15,0,0,0,1.06.33l2.89-.09c1.85-.06,2.33-.08,3.2-.16V13.92a2,2,0,0,1-.55-1.34c-4.68.05-6.89.38-9.53,1.41a2.2,2.2,0,0,1-.37.12c-.27,0-.41-.12-.37-.42,0,0,0-.11,0-.19a2.18,2.18,0,0,1,.28-.69l1.09-2.31.08,0,.09,0a1.5,1.5,0,0,0,1,.61,3.27,3.27,0,0,0,.67,0c1-.12,2.44-.28,4.36-.47,0-.85,0-1.13,0-1.69l0-2.6a3.3,3.3,0,0,0-.21-1.45c-.12-.12-.41-.16-1.15-.16a7.28,7.28,0,0,0-3.33,1.06,5.21,5.21,0,0,0-.49.38,1.73,1.73,0,0,1-.28.2h-.18a.44.44,0,0,1-.44-.44v-.1a18.65,18.65,0,0,1,1.44-3.66,3.53,3.53,0,0,0,1.41.71c2.84,0,3.26,0,6-.11V.45a7.85,7.85,0,0,1,2.75-.2,6.08,6.08,0,0,1,1.49.18l0,2.36,3.56.25a11.27,11.27,0,0,0,1.73,0A3,3,0,0,0,125.57,2a.77.77,0,0,1,.21-.2.33.33,0,0,1,.24,0,.37.37,0,0,1,.19.29,1.29,1.29,0,0,1,0,.25,4.87,4.87,0,0,1-.3.75c0,.09-.26.4-.59.87-.09.13-.34.52-.7,1.11-.21.35-.38.49-.63.53a.91.91,0,0,1-.33,0l-1.36-.28a13.88,13.88,0,0,0-1.9-.25c0,.88,0,.88,0,1.72a23.08,23.08,0,0,1-.47,4.14,13.54,13.54,0,0,0,3.18.41,4.08,4.08,0,0,0,2.94-1.76.4.4,0,0,1,.12-.07.37.37,0,0,1,.44.33,5.64,5.64,0,0,1-1,1.93,15,15,0,0,1-1.44,1.44c-.46.4-.69.51-1,.47l-.43-.12-1-.3a12,12,0,0,0-4.53-.62,21.74,21.74,0,0,0-.14,2.54l.69,0,1,0a16.75,16.75,0,0,1,2,.19,20.28,20.28,0,0,0,2.87.23,3.08,3.08,0,0,0,1.06-.24l.15,0a.32.32,0,0,1,.29.32l0,.13-.25.39a7.77,7.77,0,0,0-.47.8l-.43.93a.57.57,0,0,1-.33.35h-.13a6.31,6.31,0,0,0-.85-.33,4,4,0,0,0-.48-.08l-1.54-.17a15.44,15.44,0,0,0-3.53-.45l-.07,2.43c3.3.18,3.86.22,7.88.49a2,2,0,0,0,1.07-.43c.16-.18.27-.24.42-.22s.36.12.36.38a2.79,2.79,0,0,1-.79,1.29l-.55.63c-.56.7-.57.7-1.55.75l-.73.16c-.17,0-.34-.05-1-.36a14.06,14.06,0,0,0-4.88-1c.72,2.27,2.91,4.65,4.52,4.89A3,3,0,0,0,125,24.51c.08-.17.14-.21.29-.19s.2.07.24.36a5.65,5.65,0,0,1-.67,2.14c-.76,1.41-2.2,2.53-3.27,2.53-.8,0-1.9-1-2.68-2.42a37.35,37.35,0,0,1-1.78-3.81c0,1.67,0,3.2.08,3.72s0,.69,0,.83c0,.79,0,1.3,0,1.34a5,5,0,0,1,0,.77,1.65,1.65,0,0,1-1.7,1.43A1.79,1.79,0,0,1,114,29c0-.25.11-.77.23-1.53a52.92,52.92,0,0,0,.37-6.09l-.83,1.74c-2.16,4.52-2.2,4.61-3,5.64a2.83,2.83,0,0,1-2.06,1.41C107,30.21,105,28,104,25.07c0-.31.23-.47.46-.35a.68.68,0,0,1,.23.22,4.81,4.81,0,0,0,3.51,1.95c1.24,0,2.51-1.17,3.9-3.6A5.79,5.79,0,0,0,113,21.2c-3.64.11-7.08.81-8.65,1.77a.8.8,0,0,1-.28.13c-.24,0-.46-.26-.48-.6a5.09,5.09,0,0,1,.66-2.62.69.69,0,0,1,.31-.34.76.76,0,0,1,.39.15,1.66,1.66,0,0,0,.58.2c.52.08.52.08,2.81-.2.45-.05,3.25-.16,4.18-.16h1.83m-.72-9.08,1.56,0a17.21,17.21,0,0,1,2.35.11,4,4,0,0,1-.31-1.66,13.4,13.4,0,0,1,.28-2.23,1.76,1.76,0,0,0,0-.46,6.21,6.21,0,0,0-.21-1.38c-.69,0-1.31-.06-1.53-.05h-1.52c-.48,0-.64.19-.64.67,0,.17,0,.56,0,.94s0,.76,0,1.42l-.06,1.59c0,.48,0,.48,0,1"/><path
    class="cls-1"
    d="M181.15,32.63c0-.21,0-.33,0-.4l0-.57,0-.64v-.75c-.08-.41-.6-.54-1.55-.4a30.6,30.6,0,0,1-3.5.12h-.79l-.78,0c-.6,0-1.6,0-2.78,0l-2.4-.05c-.93,0-3.8.15-4.22.21a9.12,9.12,0,0,0-2.9,1.12,1.53,1.53,0,0,1-.29.11.53.53,0,0,1-.56-.55,1.89,1.89,0,0,1,0-.42,3.42,3.42,0,0,1,.36-.72,19.77,19.77,0,0,0,1-1.86c.09-.27.19-.41.31-.44s.14,0,.42.12a2.34,2.34,0,0,0,1,.64,2.39,2.39,0,0,0,.66,0c.46-.06.77-.09,1.61-.17,0-.87,0-1.45,0-1.72l-.22-2.95V22.05a22.56,22.56,0,0,1,.15-2.66c.05-.46.09-.88.13-1.64l-.6,0a4.6,4.6,0,0,0-3.31,1.09.68.68,0,0,1-.61.23c-.21,0-.26-.07-.29-.29a.85.85,0,0,1,0-.25l.06-.24v-.38a1.15,1.15,0,0,1,.18-.48l.66-1.14a7.65,7.65,0,0,0,.47-1.09c.17-.31.34-.45.52-.43a1,1,0,0,1,.51.27c.47.4.5.42,1,.42l1-.05c.78,0,.8,0,2.47,0l1.13,0c5.31.15,11.3.26,14.08.26h.24a3.58,3.58,0,0,0,2.62-.9,1,1,0,0,1,.36-.11c.21,0,.33.13.34.4-.15.34-.34.72-.47,1-.36.74-.59,1.24-.68,1.43l-.21.5c-.18.29-.32.39-.57.39s-.28,0-.79-.28a4.57,4.57,0,0,0-2.53-.42c-1.65.11-1.65.11-3.9.11-4.32,0-5.74,0-9.2-.12a6.5,6.5,0,0,0-.12.85c0,.91.24,1.27,1,1.25l.78,0,1.67.1c.11,0,.68,0,1.54,0s.78,0,2.91,0l1.53,0c1.08,0,1.08,0,3.1-.72a.83.83,0,0,1,.31,0c.66,0,3,1.27,3,1.61,0,.14-.16.37-.47.62a2.78,2.78,0,0,0-.69.68,4.73,4.73,0,0,0,0,.91s0,.33,0,.75v1.86l0,.71v.48c0,.19,0,.45.25,3.11a8.23,8.23,0,0,1,.1,1.79c0,1.1-.5,1.69-1.41,1.83s-1.37-.11-1.57-.76m-11.61-8.19a37.22,37.22,0,0,1,6-.45l1.09,0h.93l1.11,0,1,0c1.13,0,1.43-.24,1.43-1.13,0-.67-.2-.95-.72-1-.15,0-.61,0-1.28.06l-.5,0-1.05,0c-.57,0-1.34.05-1.46.05a42.88,42.88,0,0,1-4.73-.16c-1.63-.15-2.08.14-2.08,1.32a7.3,7.3,0,0,0,.21,1.24M181.1,28a1.39,1.39,0,0,0,.22-.82c0-.88-.47-1.23-1.69-1.23l-1.07,0L177.1,26l-1,0-3.54,0a11.56,11.56,0,0,0-2.41.19c-.34.11-.37.15-.45.51,0,.14-.06.51-.11,1.12,2-.05,2.29-.05,4.94-.05,3.47,0,4,0,6.62.13"/><path
    class="cls-1"
    d="M177.16,4.08l-.35-.49a.85.85,0,0,1-.17-.29c0-.2,0-.2.55-.82l.8-.94.49-.52.22-.24a.7.7,0,0,1,.39-.17,1.28,1.28,0,0,1,.31.07l.61.43.53.37c.75.56.91.64,1.39.64l.58,0h1.1C185,2,185.86,2,186.26,2l3.64.06c.34,0,.34,0,1-.49l.32-.24c.71-.56.71-.56.91-.49a1.25,1.25,0,0,1,.45.29c.62.39.79.51,1.66,1.12a1.25,1.25,0,0,1,.47.54,1.61,1.61,0,0,1-.29.81c-.72,1.26-.78,1.86-.78,7.21,0,4.25.38,15.93.58,17.8.06.59.09,1.12.09,1.57a3.94,3.94,0,0,1-.7,2.34,1.36,1.36,0,0,1-1.26.59c-.69,0-1.16-.47-1.35-1.34-.1-.5-.28-3.77-.28-5.18l0-2.09V21.12c0-.09,0-.46,0-1,0-.9,0-1.92,0-3.08,0-3.88-.08-4.08-1.6-4.08-.55,0-1.43.06-2.22.15a18.31,18.31,0,0,1-3,.09l-.94,0-.46,0c-.83-.07-1.39-.1-1.51-.1s-.17,0-.8.43a2.4,2.4,0,0,1-.92.24c-1.35,0-1.89-.93-1.89-3.28l0-1.78,0-1.8c0-.67,0-1.12,0-1.24a3.8,3.8,0,0,0-.37-1.56m3.44,2.45c5.73-.13,6.43-.15,7.23-.15,1,0,1.63,0,3,0,0-.5.06-.85.06-1.13s0-.57-.06-1c-.36,0-.66-.07-.81-.07h-.45l-1.74,0h-1.19l-3-.09A14.53,14.53,0,0,1,181.83,4c-1-.15-1.3,0-1.35.6a19.41,19.41,0,0,0,.12,2m.07,1.79c0,.52-.06,1-.06,1.2s0,.84.08,1.51l.18.06a14.31,14.31,0,0,1,2-.11c1.33,0,2.3,0,3.41.1s1.68.1,2.11.1l2.17-.11a9.37,9.37,0,0,0,.3-2.39V8.13c-.86,0-1.26,0-1.63,0l-2.73,0h-1.33a6.12,6.12,0,0,0-.69,0l-.76.07c-1.87.1-1.87.1-2.66.1l-.41,0"/><path
    class="cls-1"
    d="M155.08,3.84a1,1,0,0,1-.06-.27c0-.16,0-.16.88-1.14l.55-.7c.08-.12.39-.47.73-.84a.38.38,0,0,1,.3-.14A1.12,1.12,0,0,1,158,1a2.9,2.9,0,0,1,.43.22l.48.32a.81.81,0,0,0,.43.11l.31,0,1.1,0,1,0a48.53,48.53,0,0,1,5.5.42,1.6,1.6,0,0,0,1.4-.39l.77-.6.49-.38a.68.68,0,0,1,.2,0c.15,0,.28.09.62.4l.18.14.67.51C173,2.82,173,2.82,173,3a1.91,1.91,0,0,1-.47.82c-.74.92-.9,1.73-.9,4.68l.08,2.77c0,1.88-.32,2.49-1.32,2.49-1.41,0-1.56-.08-2-1.06-2.18.06-4.13.1-5,.1-1.45,0-2.44,0-4.45,0,.09,3.77.1,4.68.1,8a76.42,76.42,0,0,1-.86,11c-.19,1.12-.45,1.44-1.26,1.53a1.31,1.31,0,0,1-1.35-.7,3.66,3.66,0,0,1-.69-2.07,6.56,6.56,0,0,1,.38-1.79,18.09,18.09,0,0,0,.57-4.37c.11-2.12.29-7.79.29-9V7.67c0-2.3-.08-2.59-1-3.83M168.8,6.09c0-.21,0-.47,0-.48V5.26c-.06-1.19-.34-1.55-1.22-1.55-.34,0-.62,0-.81,0-.6,0-1.23.07-1.91.07-.4,0-.4,0-2.89-.22-.6,0-1.26-.09-1.7-.09-.91,0-1.19.1-1.38.48a5.69,5.69,0,0,0-.06.62,8.61,8.61,0,0,0,.06,1.09l1.55.15.95.1.94.09c.71,0,1.54.09,2.31.11H168l.84,0m0,1.7c-3.71-.06-4.16-.06-5.62,0l-1,0H161a11.72,11.72,0,0,0-2,.19l.08,2.72,3.18,0,1.73,0a34.64,34.64,0,0,1,3.62.14c.7.05,1-.13,1.1-.6a6.88,6.88,0,0,0,.08-1.07l0-.71Z"/><path class="cls-2" d="M202.42,45.69h0c-25-5.57-61-9.07-101.15-9.07S25.08,40.11.11,45.68h0a.11.11,0,0,0-.08.12.1.1,0,0,0,.12.08c26.32-4.35,61.93-7,101.13-7s74.81,2.67,101.13,7h0a.11.11,0,0,0,.1-.09.1.1,0,0,0-.08-.12"/><path
    class="cls-3"
    d="M183,58c0-.15-.17-.15-.29-.16a.35.35,0,0,0-.36.21,4,4,0,0,1-2.27,2.2,5.34,5.34,0,0,1-2.27.47c-1.22.07-2,.12-2.55.12l-.4,0c-.32,0-.67-.14-.68-.93,0-.29,0-9.22,0-9.56,0-.64.18-.81.4-.91a2,2,0,0,1,.63-.08,1.57,1.57,0,0,1,.38,0,1,1,0,0,0,.38.08.74.74,0,0,0,.37-.1,2.57,2.57,0,0,0,.86-1.32.4.4,0,0,0,0-.15.22.22,0,0,0-.2-.13.68.68,0,0,0-.32.16,4.34,4.34,0,0,1-1.67.24c-.49,0-1.79,0-2.38,0s-1.45-.1-1.77-.13a6.59,6.59,0,0,0-.9-.22.47.47,0,0,0-.38.16,2.56,2.56,0,0,0-.6,1.21.31.31,0,0,0,.14.27.32.32,0,0,0,.09,0c.22,0,.71-.2,1-.2h0a2.32,2.32,0,0,1,.7.07c.48.18.68.44.68.7V60c0,.28-.17,1-.33,1.1a.66.66,0,0,1-.36.08,1.36,1.36,0,0,1-.31,0,.86.86,0,0,0-.34-.13.25.25,0,0,0-.19.09c-.12.17-.33.74-.46.94a.47.47,0,0,0-.07.25.27.27,0,0,0,.26.3l.13,0a10,10,0,0,1,1.14-.23,17,17,0,0,1,2-.08h2.22l3,0c.74,0,1.51,0,2.05.11s.87.21,1.19.21h.11a1.1,1.1,0,0,0,.74-.61,5.25,5.25,0,0,0,.47-1.39,12.68,12.68,0,0,0,.16-2.21V58"/><path
    class="cls-3"
    d="M158.63,60.32a.12.12,0,0,0-.13.08h0a1,1,0,0,1-1.06.66,1.31,1.31,0,0,1-.63-.14,6.4,6.4,0,0,1-.76-1.26s-4.59-9.93-4.69-10.1a.19.19,0,0,1,0-.12.5.5,0,0,1,.23-.33c.08-.08.26-.18.26-.37a.42.42,0,0,0-.14-.28c-.28-.23-1-1.19-1.56-1.26h0a.55.55,0,0,0-.41.29,3.61,3.61,0,0,1-.28.82l-6,11.69a2.65,2.65,0,0,1-.63.87,1,1,0,0,1-.75.26h-.13c-.5,0-.42.41-.86,1.11a.37.37,0,0,0,0,.14c0,.15.16.17.28.17a6.2,6.2,0,0,0,1.11-.22,12.59,12.59,0,0,1,1.88-.07,8.69,8.69,0,0,1,1.84.23h.07c.4,0,.72-.65.83-.88a1.9,1.9,0,0,0,.17-.57.24.24,0,0,0-.21-.26h-.06c-.3,0-.34.3-1,.3a3.66,3.66,0,0,1-.58-.06c-.17-.05-.24-.12-.25-.34a2.34,2.34,0,0,1,.17-.71,21.71,21.71,0,0,1,1.23-2.43.56.56,0,0,1,.41-.21c.19,0,1.43,0,2.26,0h.28c.23,0,.68,0,.76,0a4.3,4.3,0,0,1,.51.12.21.21,0,0,0,.31-.07.2.2,0,0,0,0-.07c0-.21-.24-.47-.45-.86a5.25,5.25,0,0,1-.38-.81.27.27,0,0,0-.26-.2.24.24,0,0,0-.15,0,2.8,2.8,0,0,0-.25.14.35.35,0,0,1-.23.06H147.4s0,0,0,0l1.94-4.22s.1.08.1.1,2.17,4.63,2.23,4.81a45.49,45.49,0,0,1,1.92,4.48v.1c0,.22-.15.29-.32.3a.38.38,0,0,1-.16,0,.34.34,0,0,0-.16,0c-.4,0-.53.63-.69,1a.31.31,0,0,0,0,.13c0,.14.13.19.24.19a3.08,3.08,0,0,0,.71-.18,10.83,10.83,0,0,1,1.3,0l2.34,0c.38,0,.56.27,1,.28h0c.53-.09.84-1.56,1-2v0a.17.17,0,0,0-.19-.18"/><path
    class="cls-3"
    d="M133,47.25h-.11a.35.35,0,0,0-.34.22,1.93,1.93,0,0,1-1.51.71l-.59,0h-11c-.64,0-1.08-.39-1.52-.39s-1,1.16-1.27,1.55a1.32,1.32,0,0,0-.29.74.61.61,0,0,0,.29.54.53.53,0,0,0,.29.08,1.9,1.9,0,0,0,.5-.13c.45-.14.9-.43,1.2-.5a6,6,0,0,1,1.41-.18h2.89c.16,0,.19.06.2.21v9.69a2.11,2.11,0,0,1-.29,1.3,1,1,0,0,1-.62.19h-.11c-.27,0-.61-.24-.78-.26h0c-.21,0-.24.2-.38.35a7,7,0,0,0-.51.81.38.38,0,0,0,0,.16.17.17,0,0,0,.17.17h0c.18,0,.79-.11,1.45-.14s1.08-.09,2.22-.09c.82,0,1.21,0,1.48,0h1.12a2.56,2.56,0,0,1,.49,0,2.9,2.9,0,0,0,.63.12c.23,0,.37-.15.52-.46a5.84,5.84,0,0,0,.33-.88v0l0,0a.24.24,0,0,0-.16-.06.13.13,0,0,0-.11,0,1,1,0,0,1-.57.26l-.64,0a2.45,2.45,0,0,1-.55,0c-.26-.09-1-.15-1-1.33,0-.29,0-9.47,0-9.81,0-.18,0-.19.2-.2h3a2.31,2.31,0,0,1,1.48.42.87.87,0,0,0,.64.33h.11c.23,0,.84-.26,1.44-1.41a4.94,4.94,0,0,0,.57-1.54v0c0-.08,0-.31-.21-.38"/><path
    class="cls-3"
    d="M104.32,61h0c-.29,0-.41.13-.75.17a4.72,4.72,0,0,1-.54.08.7.7,0,0,1-.38-.11,1.26,1.26,0,0,1-.84-1.25c0-.29,0-9.13,0-9.47,0-.51.25-1.08.58-1.12h.09a2,2,0,0,1,.69.14h.07c.26,0,.43-.4.64-.66a2,2,0,0,0,.41-.74.16.16,0,0,0-.07-.14.27.27,0,0,0-.15,0,1.88,1.88,0,0,0-.56.15,15.3,15.3,0,0,1-1.7.11h-.09l-2.4,0A7.57,7.57,0,0,1,97.76,48a.51.51,0,0,0-.17,0c-.22,0-.25.2-.47.66a2.79,2.79,0,0,0-.28.77.18.18,0,0,0,.17.18l.13,0a4.34,4.34,0,0,1,1-.19h.08c.53.11,1,.23.94.7v9.43c0,.69-.11,1.7-.8,1.76h0a2.15,2.15,0,0,1-.55-.23h-.07c-.19,0-.28.2-.36.32s-.59.64-.61.92a.13.13,0,0,0,.07.12.52.52,0,0,0,.27,0c.36,0,1-.11,1.38-.12s2.38-.1,3.06-.1h.18c.41,0,1.5,0,1.7.08l.14,0a1,1,0,0,0,.68-.29,1.67,1.67,0,0,0,.3-.81c0-.11,0-.25-.2-.25"/><path
    class="cls-3"
    d="M84,54.19a.26.26,0,0,0-.17,0c-.23,0-.4.2-.66.25a7.15,7.15,0,0,1-1,.09h-.07l-2.39,0a2.68,2.68,0,0,1-1-.22.54.54,0,0,0-.19,0,1.51,1.51,0,0,0-1.3.92.49.49,0,0,0-.06.22c0,.22.21.32.42.32a1,1,0,0,0,.29,0,1.37,1.37,0,0,1,.4-.05,1.67,1.67,0,0,1,.32,0c.62.08.93.31.94.79v2.22c0,.1-.06.24-.07.42a.89.89,0,0,0,.41.69c.42.34,1,1.07,1.7,1.08h.1c.58-.08.57-.83.58-1.45v-.14c0-.3-.1-2.24-.1-2.58,0-.08,0-.17,0-.27a.66.66,0,0,1,.58-.75A1.84,1.84,0,0,0,84,54.87a.91.91,0,0,0,.22-.44.27.27,0,0,0-.16-.24"/><path
    class="cls-3"
    d="M79.32,60.76c-.13-.1-.4-.41-.67-.42s-.35.27-.46.31a6.32,6.32,0,0,1-2.73.58,6.09,6.09,0,0,1-5.76-6.38c0-4.69,3.55-5.72,5-5.73a7.55,7.55,0,0,1,3.22.65,6.13,6.13,0,0,1,2.73,1.94c.34.41.6,1.17,1.25,1.18H82c.36-.06.44-.42.44-.8s-.1-.94-.1-1.27v-.07a1.42,1.42,0,0,1,.29-1,.4.4,0,0,0,.06-.23,1,1,0,0,0-.34-.63c-.17-.19-.42-.45-.69-.45a.28.28,0,0,0-.25.12c-.18.19-.38.43-.65.43s-.44-.13-.85-.32A13.46,13.46,0,0,0,75,47.89c-3.53,0-8,2.14-8,7.62,0,4,3.18,7,8.27,7a10.55,10.55,0,0,0,4.16-.86h0c.19-.06.36,0,.49-.16a.21.21,0,0,0,0-.11c0-.26-.47-.45-.61-.6"/><path
    class="cls-3"
    d="M54.35,61a1.58,1.58,0,0,0-.42.14,2.72,2.72,0,0,1-.67.07l-.39,0c-.46-.06-1.4-.24-1.4-1.35,0-.29,0-9.22,0-9.56,0-.63.23-1,.61-1h.1l.63,0a.63.63,0,0,0,.43-.1,3.31,3.31,0,0,0,.54-.72A1.29,1.29,0,0,0,54,48a.17.17,0,0,0-.11-.18h-.1c-.27,0-.82.21-1.23.21s-1.74.15-2.43.15a12,12,0,0,1-2-.1,4.5,4.5,0,0,0-.76-.25A.45.45,0,0,0,47,48c-.18.26-.57.66-.58,1s.15.29.39.29c.71,0,1.53,0,1.76.28s.29.37.29.52V59.5a5.1,5.1,0,0,1-.11,1.11c-.09.34-.23.55-.41.55h0c-.35,0-.62-.18-.91-.19a.48.48,0,0,0-.37.19c-.28.36-.57.58-.58.9a.11.11,0,0,0,0,0c0,.21.12.4.36.4h0a.66.66,0,0,0,.23,0,11.56,11.56,0,0,1,2.64-.27l1.71,0a6.71,6.71,0,0,1,1.15.07c.47.08.77.23,1,.24h.09c.29-.1.71-.84.83-1.2a.52.52,0,0,0,0-.11.16.16,0,0,0-.16-.15"/><path
    class="cls-3"
    d="M28.63,48.71A12.57,12.57,0,0,0,24.15,48c-1.52,0-2.78.19-3.44.19a2.53,2.53,0,0,1-1.7-.42l-.14,0c-.25,0-.41.23-.73.56s-.58.64-.59.84a.26.26,0,0,0,.15.23c.35.17.61.07.86.18s.62.34.62,1.15v8.78c0,1.15-.12,1.51-.48,1.62s-1.3.18-1.33.72.51.75,1.21.75a3.44,3.44,0,0,0,.54,0,25.86,25.86,0,0,1,3.28-.25c.43,0,1.78.12,2.86.12a5.47,5.47,0,0,0,1.08-.08c.91-.18,3.53-.42,5.3-2.42A6.5,6.5,0,0,0,33.46,55a7.24,7.24,0,0,0-4.83-6.32m-6.86,1.42c0-.38,0-.72.61-.77.22,0,.58,0,1,0a10.51,10.51,0,0,1,3.4.45,6.23,6.23,0,0,1,3.87,5.77c0,5.21-3.92,5.59-5.4,5.6a13.62,13.62,0,0,1-2.93-.41c-.45-.18-.56-.17-.58-.79s0-9.55,0-9.57,0-.16,0-.24"/>
</svg>
