<svg xmlns="http://www.w3.org/2000/svg" viewBox="0 0 382.2 33.43">
  <defs>
    <style>
      .cls-1,
      .cls-3 {
        fill: #231815;
      }
      .cls-1 {
        fill-rule: evenodd;
      }
      .cls-2 {
        fill: #ae1e24;
      }
    </style>
  </defs>
  <path
    class="cls-1"
    d="M1.22,20.6a.87.87,0,0,1,.22-.11.79.79,0,0,1,.35.11c.24.1.47.19.54.23a1.79,1.79,0,0,0,.73.2,116.88,116.88,0,0,1,12.41-.81,40.31,40.31,0,0,1,6.35.45,17.13,17.13,0,0,0,2.75.2c1,0,1.45-.28,2.14-1.35.08-.18.14-.25.25-.3a.39.39,0,0,1,.53.37,1.27,1.27,0,0,1-.14.48,6.76,6.76,0,0,1-1.76,2.84,3.63,3.63,0,0,1-1.57.84c-.44.07-.46.06-2.22-.76a14.27,14.27,0,0,0-4.66-.76c0,1.17.05,2.14.05,2.65a12.13,12.13,0,0,1-.39,3.83,3.08,3.08,0,0,1-3.32,2.19A7.51,7.51,0,0,1,9.21,29a8.61,8.61,0,0,1-2-2.53.53.53,0,0,1,0-.21.32.32,0,0,1,.38-.3,1.14,1.14,0,0,1,.26.12,5.48,5.48,0,0,0,3.79,2c1.09,0,1.61-.36,1.8-1.24a12.37,12.37,0,0,0,.21-2.24c0-.93,0-1.05-.09-2.39-6.78,0-11,.85-12.75,2.46l-.2.06a.59.59,0,0,1-.17,0A1.47,1.47,0,0,1,0,23.64a3.93,3.93,0,0,1,1.22-3"/><path
    class="cls-1"
    d="M2.34,5.76c0-1.88.63-3.46,1.35-3.58.33-.05.35,0,1,.52l.44.37a.72.72,0,0,0,.66.25c2.28-.25,3.13-.32,6.62-.5a1.1,1.1,0,0,0,.17-.67A15.85,15.85,0,0,0,12.39.24,12,12,0,0,1,14.88,0a14.66,14.66,0,0,1,2,.29V2.67c2,.09,2,.09,3.55.09a27.27,27.27,0,0,0,3.77-.3A2.62,2.62,0,0,0,26.53.89.56.56,0,0,1,26.7.8a.45.45,0,0,1,.52.33,1.22,1.22,0,0,1,0,.27,3.24,3.24,0,0,1-.82,1.82c-.49.68-.54.75-1.14,1.69-.3.48-.66.77-1,.77A4.43,4.43,0,0,1,23,5.36a27,27,0,0,0-7.14-.85A48.17,48.17,0,0,0,3.65,5.89,4,4,0,0,1,3,6a.8.8,0,0,1-.55-.11Z"/><path
    class="cls-1"
    d="M6,7.53c0-.21,0-.22.29-.22.61.13,1.17.26,1.36.32a4.43,4.43,0,0,0,.61.14,7.22,7.22,0,0,0,2-.34A23.77,23.77,0,0,1,14.83,7l1.58,0A11.72,11.72,0,0,1,19,7.23a2.53,2.53,0,0,0,1,.09,3.94,3.94,0,0,0,.9-.43,1.43,1.43,0,0,1,.49-.23c.24,0,.29,0,.89.44l.76.54c.42.39.77.69,1,.9a1.24,1.24,0,0,1,.11.42,1.09,1.09,0,0,1-.09.33c-1.15,1.09-1.2,1.29-1.86,7.77a3,3,0,0,1-.41,1.15c-.12.18-.21.21-.61.21a5.7,5.7,0,0,1-2.15-.49l-.51-.11h-.16c-.16,0-2.36.11-2.6.11s-.33,0-4.08-.26l-.66,0a3.34,3.34,0,0,0-2.13.72,5.11,5.11,0,0,1-1.39-.66c0-.91.07-2.11.07-2.48A15.2,15.2,0,0,0,6,7.53m4.23,4a12.24,12.24,0,0,1,2.13-.21l2.43.15a5.22,5.22,0,0,0,.65,0,6.62,6.62,0,0,0,1.29-.24l.49-.2c.28-.07.61.17.88.67a2.73,2.73,0,0,1,.44,1.16.73.73,0,0,1-.54.69l-.74,0c-.28,0-.73,0-1.26-.1-1-.12-1.63-.2-1.89-.22L13,13.21l-.53-.07a4.81,4.81,0,0,0-.93,0c-.9.08-1.15.18-1.31.56a8.31,8.31,0,0,0-.06.84c0,.94.17,1.29.63,1.29.67,0,1.64-.06,3.16-.18.44,0,1.16-.05,2.16-.05a19.8,19.8,0,0,1,3.41.34,1,1,0,0,0,.16-.67c0-.35,0-.85,0-.9.1-1.36.2-2.61.33-4.37-.2-.68-.2-.68-5.94-1-.41,0-2.72.1-3.3.18-.77.11-1,.42-1,1.15a3.57,3.57,0,0,0,.38,1.23"/><path
    class="cls-1"
    d="M18.68,25.39a1.1,1.1,0,0,1,0-.24.36.36,0,0,1,.37-.28.59.59,0,0,1,.24.1c1.75,2.31,3.36,3.13,5.64,2.91a3.22,3.22,0,0,0,2.15-1c1.26-1.36,1.89-3.24,2.22-6.54a72.81,72.81,0,0,0,.25-8.62c0-3.44-.21-5.51-.66-6.43a1.52,1.52,0,0,0-.79-.77.89.89,0,0,1-.15-.38.9.9,0,0,1,.14-.4A2.43,2.43,0,0,1,29,2.78,15.82,15.82,0,0,1,35.53,1.5c.36,0,2.29.17,2.64.24a18.92,18.92,0,0,0,2.37.33A4.25,4.25,0,0,0,42,1.48a.47.47,0,0,1,.21-.09c.08,0,.14,0,.35.16C44.24,3.36,45,4.31,45,4.76a.58.58,0,0,1-.31.56c-1.34,1-1.47,1.79-1.47,8.53a73.52,73.52,0,0,0,.56,9.92l.09,1.91.06,1a12.59,12.59,0,0,1-.53,3.58,1.44,1.44,0,0,1-1.57,1.1,1.57,1.57,0,0,1-1.37-1.17c-.11-.36-.11-.36-.12-3.32l0-2.1c0-2.79,0-2.79-.11-3.17s-.91-.82-1.63-.72l-.7.13a10.63,10.63,0,0,1-1.59.12A10.1,10.1,0,0,1,35,21L33.6,21l-.86,0c-.37,0-.6.25-.64.72-.34,3.41-.57,4.42-1.3,5.82a5.76,5.76,0,0,1-4.95,3.37c-3.22,0-5.54-1.77-7.17-5.47M32,9.86a21.55,21.55,0,0,1,3.3-.23c.63,0,3.35.08,4.07.12,1.37,0,1.51-.22,1.57-2.57L41,6.08A4.61,4.61,0,0,0,40.94,5c-.17-.71-1.1-1.08-2.65-1.06-.38,0-.7,0-.94,0a11.79,11.79,0,0,0-2.55.12,4.85,4.85,0,0,1-.65,0c-1.42,0-2.17.35-2.34,1.15a11.23,11.23,0,0,0-.14,1.82A25,25,0,0,0,32,9.86m.29,9a8.16,8.16,0,0,1,3-.5h1.14l1.86,0c1.1,0,1.1,0,2.13,0,.24-2.34.34-3.59.34-4.56,0-1.75-.2-2-2-2l-1.08-.1a21.25,21.25,0,0,0-2.41-.12,22.86,22.86,0,0,0-2.45.29,1.26,1.26,0,0,0-.81.51c.17,2,.23,3.07.23,3.94s0,1.17-.08,2.43Z"/><path
    class="cls-1"
    d="M55.62,4.93l.69-1a10.82,10.82,0,0,0,1.06-1.64c.1-.13.16-.16.26-.16s.16,0,.25.16l.27.34a2.6,2.6,0,0,0,2.63,1.25c.35,0,.35,0,2.45-.28,3-.36,6.92-.67,8.64-.67a47.74,47.74,0,0,1,9.32.59,9.33,9.33,0,0,0,1.51.09c.76,0,.76,0,3.07-1.4l.22,0a1.12,1.12,0,0,1,.36.14,8.1,8.1,0,0,1,2,2.09c.8,1,.93,1.2,1,1.59,0,.2,0,.32-.26.57-.94,1.15-1,1.36-1,7.58.33,10.46.33,10.46.33,12.21,0,2.43-.54,3.64-1.69,3.78-.88.12-1,.06-2-1.26-.34-.44-.45-.5-1.14-.65H81.16l-3.19,0-7,.15-4.17.09-2.23,0c-3.57-.11-4.64.2-6.17,1.77a.93.93,0,0,1-.25.2.43.43,0,0,1-.38-.12,7.91,7.91,0,0,0-.4-.73l-1.57-2.09a.62.62,0,0,1,0-.19c0-.13.07-.21.23-.26,1.26-.2,1.56-.81,1.56-3.11,0-.15,0-.15-.08-2.39l0-1.65-.21-4.64c-.05-1.24-.12-4.15-.11-4.63-.06-3.92-.31-4.87-1.55-5.74m4.83,21.24c5.32-.36,5.42-.37,8.17-.43,1.93,0,3.81-.06,5.65-.06,1,0,8.67.2,9.36.24,1.26.07,1.53-.25,1.42-1.7C85,23.16,85,22.39,85,21.35c0-.3,0-1.2.07-2.38,0-.44,0-1,0-1.75.06-2.26.11-3.84.14-4.56.1-2.56.13-3.33.13-4.11,0-2-.32-2.47-1.6-2.47h-.91l-1,0c-1.67,0-3.49-.09-9.07-.43H71c-1.36,0-2.2,0-4.48.23L64.86,6l-.51,0a9.94,9.94,0,0,1-1.54,0,8.5,8.5,0,0,0-1.38,0,1.38,1.38,0,0,0-1.22.93,8.46,8.46,0,0,0-.16,2.2,25.07,25.07,0,0,0,.23,2.86c.09.9.23,4.14.23,5.29s-.17,5.36-.35,8.71c0,.23.08.28.29.24"/><path
    class="cls-1"
    d="M63.87,13.44a.6.6,0,0,1,.5-.17.42.42,0,0,1,.37.19c.18.73.78,1.08,1.85,1.08l.91,0c2.58-.22,4.36-.3,6.44-.3a19.4,19.4,0,0,1,4.19.35,5.36,5.36,0,0,0,1,.16,1.41,1.41,0,0,0,1.31-1.08.62.62,0,0,1,.13-.2c.29-.17.6.09.6.5v.3c-.37,2.57-.56,3-1.41,3.23a1.49,1.49,0,0,0-.9.49.89.89,0,0,1-.45.3.59.59,0,0,1-.27-.06,6.5,6.5,0,0,0-4-.91l-.84,0c-.27,0-.75,0-1.31,0h-.8l-1.42,0c-4.3,0-5,.22-6.18,2a.73.73,0,0,1-.25.11c-.26,0-.3-.06-.43-1A11.13,11.13,0,0,1,63,17.05l.55-2.11.08-.44.2-1.06"/><path
    class="cls-1"
    d="M119.77,30.73a.5.5,0,0,1,0-.22.73.73,0,0,1,.09-.18l.25-.11.31-.12a6.07,6.07,0,0,0,3.2-3.86,16.2,16.2,0,0,0,.72-3.9c.07-1.09.24-5.12.24-5.73,0-.06,0-.33,0-.7-.06-.91-.11-1.74-.13-2.48-.1-5.42-.3-6.57-1.74-9.75l1.85-1.9c.06-.06.1-.08.15-.07l.13,0,.59.4a2.92,2.92,0,0,0,1.7.52,7,7,0,0,0,1,0c.46,0,.82-.05,1.17-.05h2.18c.34,0,2.44-.23,2.85-.32A8.82,8.82,0,0,0,137,1.1c.25-.21.44-.27.6-.22a1.29,1.29,0,0,1,.49.42A12.26,12.26,0,0,1,140,3.8a.81.81,0,0,1,.12.37c0,.36-.35.61-.87.61a6.5,6.5,0,0,1-1.15-.17A5.85,5.85,0,0,0,137,4.52a7.22,7.22,0,0,0-1.23.1c-1.29.19-3,.37-3.38.37l-1.46,0-1,.08c-.48,0-1,.07-1.25.07H128l-.71,0c-.42,0-.71.17-.77.45s0,.18.45,2.28a14.91,14.91,0,0,1,.27,3.28v.73c.07.16.08.18.25.21a27.82,27.82,0,0,1,4.88-.4,48.59,48.59,0,0,1,6.49.35,5.92,5.92,0,0,0,.67,0c1.24,0,2.11-.64,2.86-2.11a4.84,4.84,0,0,0,.47-1.37c.27-.25.4-.3.6-.23a1,1,0,0,1,.26.2l.05.3a10.35,10.35,0,0,1-.66,3.27c-.83,2.21-1.71,3.35-2.6,3.35a2.19,2.19,0,0,1-1.15-.34c-1.67-.85-2-1-2.7-.89a1.46,1.46,0,0,0-1.3,1.21,13,13,0,0,0-.15,3.19,54.35,54.35,0,0,0,.38,5.49c.2,1.66.32,3.25.32,4a5.26,5.26,0,0,1-.69,2.78,1.24,1.24,0,0,1-1.1.52c-.65,0-1-.26-1.28-1.1a6.25,6.25,0,0,1-.56-2.89c0-.41.08-1.62.15-2.47a34.76,34.76,0,0,0,.22-3.59,30.54,30.54,0,0,0-.6-6.89,1.72,1.72,0,0,0-1.79-1,5,5,0,0,0-2.36.56c-.34.22-.42.62-.42,2,0,.26,0,1.11.1,2.35,0,.78,0,1.22,0,2.14a23.07,23.07,0,0,1-.63,5.6,5.74,5.74,0,0,1-3.78,4.09,9,9,0,0,1-3.1.65.4.4,0,0,1-.35-.14"/><path
    class="cls-1"
    d="M110.18,19.54l0-2.44c-.39,0-.59,0-.92,0a11.74,11.74,0,0,0-1.62.14,4.47,4.47,0,0,1-.75,0l-1.69-.11c-.34,0-.63,0-1,0a6.81,6.81,0,0,0-3,.54.7.7,0,0,1-.82-.38,1.19,1.19,0,0,1,0-.27,3.85,3.85,0,0,1,1-1.53,1.48,1.48,0,0,1,1.19-.58,2.45,2.45,0,0,1,.52.24,3.36,3.36,0,0,0,1,.32l2.89-.09c1.85-.06,2.33-.08,3.2-.16V13.92a1.92,1.92,0,0,1-.54-1.34c-4.69.05-6.9.38-9.55,1.41a1.26,1.26,0,0,1-.36.12c-.27,0-.4-.12-.37-.42a1.76,1.76,0,0,1,0-.19,2,2,0,0,1,.27-.69l1.09-2.31.08,0,.09,0a1.5,1.5,0,0,0,1,.61,3.27,3.27,0,0,0,.67,0c1-.12,2.44-.28,4.36-.47,0-.85,0-1.13,0-1.69l0-2.6a3.3,3.3,0,0,0-.21-1.45c-.12-.12-.41-.16-1.15-.16a7.32,7.32,0,0,0-3.32,1.06,3.74,3.74,0,0,0-.5.38,1.73,1.73,0,0,1-.28.2h-.18a.44.44,0,0,1-.44-.44v-.1a19.12,19.12,0,0,1,1.43-3.66,3.79,3.79,0,0,0,1.42.71c2.84,0,3.26,0,6-.11V.45a7.85,7.85,0,0,1,2.75-.2,6.08,6.08,0,0,1,1.49.18l0,2.36,3.56.25a11.27,11.27,0,0,0,1.73,0A3,3,0,0,0,121.37,2a.77.77,0,0,1,.21-.2.33.33,0,0,1,.24,0A.37.37,0,0,1,122,2a1.29,1.29,0,0,1,0,.25,4.87,4.87,0,0,1-.3.75c-.05.09-.26.4-.59.87-.09.13-.34.52-.7,1.11-.21.35-.38.49-.63.53a.92.92,0,0,1-.33,0l-1.36-.28a13.88,13.88,0,0,0-1.9-.25c0,.88,0,.88,0,1.72a23.08,23.08,0,0,1-.47,4.14,13.54,13.54,0,0,0,3.19.41,4.07,4.07,0,0,0,2.93-1.76.4.4,0,0,1,.12-.07.37.37,0,0,1,.44.32,5.51,5.51,0,0,1-1,1.94A16.25,16.25,0,0,1,120,13.16c-.46.4-.69.51-1,.47l-.43-.12-1-.3a12,12,0,0,0-4.53-.62,21.74,21.74,0,0,0-.14,2.54l.69,0,1,0a16.75,16.75,0,0,1,2,.19,20.28,20.28,0,0,0,2.87.23,3.08,3.08,0,0,0,1.06-.24l.15,0a.32.32,0,0,1,.29.32.31.31,0,0,1,0,.13l-.25.39a7.77,7.77,0,0,0-.47.8l-.42.93a.56.56,0,0,1-.34.34.27.27,0,0,1-.13,0,7.33,7.33,0,0,0-.85-.32,4,4,0,0,0-.48-.08l-1.54-.17a15.44,15.44,0,0,0-3.53-.45l-.07,2.43c3.3.18,3.86.22,7.88.49a2,2,0,0,0,1.07-.43c.17-.18.27-.23.42-.22s.36.12.36.38a2.79,2.79,0,0,1-.79,1.29c-.24.27-.45.5-.55.63-.56.7-.57.7-1.55.75l-.72.15c-.17,0-.35,0-1-.36a14.54,14.54,0,0,0-4.88-1c.72,2.28,2.91,4.66,4.52,4.9a3.06,3.06,0,0,0,3.07-1.72c.07-.18.13-.21.28-.19s.21.07.24.36a5.48,5.48,0,0,1-.67,2.14c-.76,1.41-2.2,2.53-3.27,2.53-.8,0-1.9-1-2.68-2.42a37.35,37.35,0,0,1-1.78-3.81c0,1.67.05,3.2.08,3.72s0,.69,0,.83c0,.79,0,1.3,0,1.34a5,5,0,0,1,0,.77,1.65,1.65,0,0,1-1.7,1.43A1.79,1.79,0,0,1,109.76,29c0-.25.11-.77.23-1.53a52.92,52.92,0,0,0,.37-6.09l-.83,1.74c-2.16,4.52-2.2,4.61-3,5.64a2.8,2.8,0,0,1-2.06,1.41c-1.69,0-3.69-2.18-4.72-5.14,0-.31.23-.47.47-.35a.77.77,0,0,1,.23.22,4.78,4.78,0,0,0,3.5,1.95c1.24,0,2.51-1.17,3.9-3.6a5.53,5.53,0,0,0,.91-2.09c-3.63.11-7.07.81-8.64,1.77a.8.8,0,0,1-.28.13c-.24,0-.46-.26-.48-.6a5.09,5.09,0,0,1,.66-2.62c.12-.2.23-.32.31-.34a.76.76,0,0,1,.39.15,1.73,1.73,0,0,0,.58.2c.52.08.52.08,2.81-.2.45-.05,3.25-.16,4.19-.16h1.83m-.73-9.08,1.56,0a17.21,17.21,0,0,1,2.35.11,4,4,0,0,1-.31-1.66,13.4,13.4,0,0,1,.28-2.23,1.76,1.76,0,0,0,0-.46,5.18,5.18,0,0,0-.21-1.38c-.68,0-1.31-.06-1.53-.05h-1.53c-.46,0-.63.19-.63.67,0,.17,0,.55,0,.93s0,.77,0,1.43l0,1.59c0,.48,0,.48,0,1"/><path
    class="cls-1"
    d="M177,32.63c0-.21,0-.33,0-.4l0-.57,0-.64v-.75c-.08-.41-.6-.54-1.55-.4a30.6,30.6,0,0,1-3.5.12h-.79l-.78,0c-.6,0-1.6,0-2.78,0L165.17,30c-.95,0-3.81.15-4.23.21A9.12,9.12,0,0,0,158,31.3a1.06,1.06,0,0,1-.28.1.51.51,0,0,1-.57-.54,2.77,2.77,0,0,1,0-.42,4,4,0,0,1,.36-.72,18.7,18.7,0,0,0,1-1.86c.09-.27.19-.41.32-.44s.14,0,.41.12a2.4,2.4,0,0,0,1,.64,1.84,1.84,0,0,0,.66,0l1.61-.16c0-.87,0-1.46,0-1.72l-.23-2.95V22.05a22.56,22.56,0,0,1,.15-2.66c.05-.46.09-.88.13-1.64l-.6,0a4.6,4.6,0,0,0-3.31,1.09.68.68,0,0,1-.61.23c-.21,0-.26-.08-.29-.29a1.49,1.49,0,0,1,0-.25l.07-.24v-.38a1.15,1.15,0,0,1,.18-.48l.67-1.14a9.67,9.67,0,0,0,.46-1.09c.17-.31.34-.45.52-.43a1,1,0,0,1,.52.27c.46.4.49.42,1,.42l1-.05c.78,0,.8,0,2.47,0l1.13,0c5.31.15,11.3.26,14.08.26h.24a3.58,3.58,0,0,0,2.62-.9.82.82,0,0,1,.36-.11c.21,0,.33.13.34.4-.15.34-.34.72-.47,1-.36.74-.6,1.25-.68,1.43L182,18c-.18.29-.32.39-.57.39s-.28,0-.79-.28a4.55,4.55,0,0,0-2.53-.42c-1.65.11-1.65.11-3.9.11-4.32,0-5.74,0-9.2-.12a6.5,6.5,0,0,0-.12.85c0,.91.24,1.27,1,1.25l.78,0,1.67.1,1.55,0c.77,0,.77,0,2.9,0l1.53,0c1.08,0,1.08,0,3.1-.72a.83.83,0,0,1,.31,0c.66,0,3,1.27,3,1.61,0,.14-.16.37-.47.62a2.78,2.78,0,0,0-.69.68,4.73,4.73,0,0,0,0,.91s0,.32,0,.75v3.05c0,.19,0,.45.25,3.11a8.23,8.23,0,0,1,.1,1.79c-.05,1.1-.5,1.69-1.41,1.83s-1.37-.11-1.57-.76m-11.61-8.19a37.22,37.22,0,0,1,6-.45l1.09,0h.93l1.1,0h1c1.13,0,1.43-.23,1.43-1.12,0-.67-.2-.95-.72-1-.15,0-.61,0-1.28.06l-.5,0-1,0c-.57,0-1.34.05-1.46.05a42.88,42.88,0,0,1-4.73-.16c-1.62-.15-2.08.14-2.08,1.32a7.3,7.3,0,0,0,.21,1.24M176.91,28a1.47,1.47,0,0,0,.21-.83c0-.87-.47-1.22-1.69-1.22l-1.07,0L172.9,26l-1,0-3.55,0a11.56,11.56,0,0,0-2.41.19c-.34.11-.37.15-.45.51,0,.14-.06.51-.11,1.12,1.95-.05,2.29-.05,4.94-.05,3.47,0,4,0,6.63.13"/><path
    class="cls-1"
    d="M173,4.08l-.35-.49a.85.85,0,0,1-.17-.29c0-.2,0-.2.55-.82l.8-.93.49-.53.22-.24a.65.65,0,0,1,.39-.17,1.19,1.19,0,0,1,.31.07l.61.43.54.37c.75.57.9.64,1.37.64l.59,0h1.11C180.79,2,181.66,2,182.06,2l3.64.06c.34,0,.34,0,1-.49l.32-.25c.71-.55.71-.55.91-.48a1.17,1.17,0,0,1,.45.29c.62.39.79.51,1.66,1.12.28.22.45.41.47.54a1.61,1.61,0,0,1-.29.81c-.72,1.26-.78,1.86-.78,7.21,0,4.25.38,15.92.58,17.8.06.59.09,1.12.09,1.57a3.94,3.94,0,0,1-.7,2.34,1.36,1.36,0,0,1-1.26.59c-.69,0-1.16-.47-1.35-1.34-.1-.5-.28-3.77-.28-5.18l0-2.09V21.12c0-.09,0-.46,0-1,0-.9,0-1.92,0-3.08,0-3.88-.08-4.08-1.6-4.08a21.91,21.91,0,0,0-2.21.15,18.44,18.44,0,0,1-3,.09l-1,0-.45,0c-.83-.07-1.39-.1-1.51-.1s-.17,0-.8.43a2.4,2.4,0,0,1-.92.24c-1.35,0-1.89-.93-1.89-3.28l0-1.78,0-1.8c0-.67,0-1.12,0-1.24A3.76,3.76,0,0,0,173,4.08m3.44,2.45c5.73-.13,6.43-.15,7.23-.15,1.05,0,1.64,0,3,0,0-.5.06-.85.06-1.13s0-.57-.06-1a6.68,6.68,0,0,0-.81-.07h-.45l-1.74,0h-1.19l-3-.09A17,17,0,0,1,177.63,4c-.95-.16-1.3,0-1.35.6a19.41,19.41,0,0,0,.12,2m.07,1.78c0,.53-.06,1-.06,1.21s0,.84.08,1.51l.18.06a14.31,14.31,0,0,1,2-.11c1.33,0,2.3,0,3.42.1s1.67.1,2.1.1l2.17-.11a9.37,9.37,0,0,0,.3-2.39V8.13c-.86,0-1.26,0-1.63,0l-2.72,0H181c-.28,0-.51,0-.69,0l-.76.08c-1.87.1-1.87.1-2.66.1l-.41,0"/><path
    class="cls-1"
    d="M150.88,3.83a.62.62,0,0,1-.06-.26c0-.16,0-.16.88-1.14l.55-.7c.08-.12.39-.47.73-.84a.39.39,0,0,1,.3-.14,1.12,1.12,0,0,1,.52.28,4.56,4.56,0,0,1,.43.22l.48.31a.73.73,0,0,0,.43.12l.31,0,1.1,0,1,0a50.25,50.25,0,0,1,5.5.41,1.56,1.56,0,0,0,1.4-.38l.77-.6.49-.38a.46.46,0,0,1,.2,0c.16,0,.28.09.62.39l.18.15.67.51c1.4,1.18,1.4,1.18,1.42,1.37a1.74,1.74,0,0,1-.47.81c-.74.93-.9,1.74-.9,4.69l.08,2.77c0,1.88-.32,2.49-1.32,2.49-1.41,0-1.56-.08-2-1-2.18,0-4.13.09-5,.09-1.45,0-2.43,0-4.45,0,.09,3.77.1,4.68.1,8a76.42,76.42,0,0,1-.86,11c-.19,1.12-.45,1.44-1.26,1.53a1.31,1.31,0,0,1-1.35-.7,3.66,3.66,0,0,1-.69-2.07,6.56,6.56,0,0,1,.38-1.79,18.09,18.09,0,0,0,.57-4.37c.11-2.12.3-7.79.3-9V7.67c0-2.3-.08-2.59-1-3.84m13.73,2.26c0-.21,0-.47,0-.48V5.26c-.06-1.19-.34-1.55-1.22-1.55-.34,0-.62,0-.81,0-.6,0-1.23.07-1.9.07-.4,0-.4,0-2.9-.22-.6-.06-1.26-.09-1.7-.09-.9,0-1.19.1-1.38.48a5.69,5.69,0,0,0-.06.62,8.46,8.46,0,0,0,.06,1.08l1.55.16,1,.1.94.09c.71,0,1.54.08,2.31.11h3.31l.84,0m0,1.7c-3.71-.06-4.16-.06-5.62,0l-1,0h-1.22a11.51,11.51,0,0,0-2,.19l.07,2.72,3.18,0,1.73,0c1.52,0,2.73,0,3.62.13.7.06,1-.12,1.1-.59a5.83,5.83,0,0,0,.08-1.07l0-.7Z"/><path
    class="cls-2"
    d="M202.27,9.07h0c23.39-3.86,55-6.23,89.83-6.23s66.44,2.37,89.81,6.23h0a.24.24,0,0,0,.25-.18V8.84a.23.23,0,0,0-.19-.23h0C359.8,3.65,327.76.55,292.12.55s-67.68,3.1-89.87,8.06h0l-.11,0v0a.21.21,0,0,0-.08.17V8.9a.23.23,0,0,0,.23.17"/><path
    class="cls-3"
    d="M374.29,24.05c0-.17-.2-.17-.34-.19a.42.42,0,0,0-.43.25,4.76,4.76,0,0,1-2.7,2.61,6.14,6.14,0,0,1-2.69.56c-1.46.08-2.4.14-3,.14h-.46c-.39,0-.8-.17-.81-1.11,0-.34,0-11,0-11.36,0-.76.22-1,.47-1.08a2.45,2.45,0,0,1,.76-.1,1.83,1.83,0,0,1,.44,0,1.2,1.2,0,0,0,.45.09.85.85,0,0,0,.45-.12,3.07,3.07,0,0,0,1-1.57.35.35,0,0,0,0-.17.25.25,0,0,0-.23-.15.61.61,0,0,0-.38.19,5.46,5.46,0,0,1-2,.28c-.58,0-2.13.05-2.82.05s-1.73-.11-2.1-.14a7,7,0,0,0-1.08-.27.54.54,0,0,0-.44.19,2.9,2.9,0,0,0-.72,1.44.36.36,0,0,0,.16.33.22.22,0,0,0,.11,0c.26,0,.84-.23,1.17-.23h0a2.44,2.44,0,0,1,.83.09c.58.2.81.52.81.82V26.39c0,.33-.19,1.23-.38,1.31a.77.77,0,0,1-.44.09,1.25,1.25,0,0,1-.36,0,1.25,1.25,0,0,0-.41-.16.26.26,0,0,0-.22.12c-.14.2-.4.86-.55,1.11a.53.53,0,0,0-.08.29.32.32,0,0,0,.3.36.4.4,0,0,0,.15,0,13.81,13.81,0,0,1,1.37-.28,20.53,20.53,0,0,1,2.33-.1h2.64c1.39,0,2.95,0,3.62,0,.88,0,1.8.06,2.45.12s1,.26,1.41.26h.12a1.34,1.34,0,0,0,.89-.71,6.64,6.64,0,0,0,.55-1.65,14.52,14.52,0,0,0,.19-2.63v-.41"/><path
    class="cls-3"
    d="M349.15,26.83a.13.13,0,0,0-.14.1h0a1.17,1.17,0,0,1-1.26.78,1.45,1.45,0,0,1-.75-.17,7.38,7.38,0,0,1-.9-1.49s-5.45-11.8-5.57-12a.24.24,0,0,1,0-.14.61.61,0,0,1,.27-.4c.1-.1.31-.21.31-.44a.45.45,0,0,0-.17-.33c-.33-.28-1.18-1.41-1.85-1.5h0a.65.65,0,0,0-.48.34,4.38,4.38,0,0,1-.34,1L331,26.45a3.51,3.51,0,0,1-.75,1,1.26,1.26,0,0,1-.9.3h-.16c-.59,0-.49.49-1,1.33a.3.3,0,0,0-.05.16c0,.17.19.2.33.2a7.45,7.45,0,0,0,1.33-.26,15.33,15.33,0,0,1,2.22-.08,10.62,10.62,0,0,1,2.19.27h.08c.48,0,.86-.77,1-1a2.38,2.38,0,0,0,.2-.67.29.29,0,0,0-.24-.32h-.08c-.35,0-.41.35-1.15.35a4,4,0,0,1-.69-.07c-.2-.05-.29-.14-.29-.41a2.77,2.77,0,0,1,.19-.84,26.62,26.62,0,0,1,1.47-2.88.63.63,0,0,1,.48-.25c.23,0,1.7,0,2.69,0h.33c.27,0,.81,0,.91.05a3.12,3.12,0,0,1,.6.14.24.24,0,0,0,.15,0,.24.24,0,0,0,.21-.12.18.18,0,0,0,0-.09c0-.25-.29-.57-.53-1a4.87,4.87,0,0,1-.45-1,.32.32,0,0,0-.32-.23.39.39,0,0,0-.18,0c-.12.05-.19.12-.29.17s-.1.06-.28.07h-2.22a.15.15,0,0,1,0-.06c.17-.35,2.13-4.64,2.3-5,0,0,.12.09.12.12s2.58,5.5,2.65,5.71a52.85,52.85,0,0,1,2.28,5.32s0,.08,0,.12a.34.34,0,0,1-.38.35.54.54,0,0,1-.2,0,.45.45,0,0,0-.19,0c-.48,0-.62.75-.82,1.21a.5.5,0,0,0,0,.16c0,.16.16.22.28.22a3.65,3.65,0,0,0,.85-.21,14,14,0,0,1,1.54-.05c1.12,0,2.47,0,2.78,0s.66.32,1.15.33h.06c.62-.1,1-1.86,1.13-2.39v0a.22.22,0,0,0-.23-.21"/><path
    class="cls-3"
    d="M324.47,11.3h-.13a.46.46,0,0,0-.41.26,2.17,2.17,0,0,1-.76.61,2.23,2.23,0,0,1-1,.24l-.69,0H308.31c-.76,0-1.28-.47-1.8-.48s-1.15,1.39-1.51,1.85a1.49,1.49,0,0,0-.35.88.74.74,0,0,0,.35.64.63.63,0,0,0,.34.1,2.45,2.45,0,0,0,.6-.16c.52-.16,1.06-.51,1.43-.59A7.31,7.31,0,0,1,309,14.4l3.43,0c.18,0,.23.07.24.25V26.18c0,.6-.08,1.32-.35,1.54a1.13,1.13,0,0,1-.74.23h-.13a5.73,5.73,0,0,1-.92-.32h0c-.24,0-.28.24-.45.41a7.22,7.22,0,0,0-.6,1,.35.35,0,0,0-.05.18.21.21,0,0,0,.2.2h.05c.21,0,.94-.13,1.72-.17s1.28-.1,2.64-.1c1,0,1.43,0,1.76,0a1.94,1.94,0,0,1,.35,0h.25l.72,0a2.71,2.71,0,0,1,.59,0,3.52,3.52,0,0,0,.74.14c.29,0,.45-.17.62-.54a8.72,8.72,0,0,0,.4-1v-.06l0,0a.36.36,0,0,0-.19-.07.18.18,0,0,0-.14.06,1.19,1.19,0,0,1-.67.3c-.18,0-.48,0-.76,0a3.3,3.3,0,0,1-.66-.05c-.31-.11-1.18-.19-1.19-1.58,0-.35,0-11.26,0-11.66,0-.21.06-.23.24-.24h3.62a2.67,2.67,0,0,1,1.76.51,1,1,0,0,0,.76.38h.13c.28,0,1-.3,1.71-1.68a5.4,5.4,0,0,0,.68-1.83v0c0-.09,0-.36-.25-.45"/><path
    class="cls-3"
    d="M296.38,27.61h0c-.36,0-.49.16-.9.21-.26,0-.45.1-.64.1a.88.88,0,0,1-.46-.14,1.5,1.5,0,0,1-1-1.48c0-.35,0-10.85,0-11.26,0-.6.3-1.28.69-1.32h.11a2.7,2.7,0,0,1,.83.17l.08,0c.31,0,.51-.48.75-.79a2.25,2.25,0,0,0,.49-.88.18.18,0,0,0-.08-.17.35.35,0,0,0-.17,0,2.3,2.3,0,0,0-.67.19c-.15,0-1.47.13-2,.13h-.1l-2.86,0a8.83,8.83,0,0,1-1.79-.16l-.2,0c-.27,0-.3.23-.57.79a3.16,3.16,0,0,0-.33.91.22.22,0,0,0,.21.22l.15,0a4.75,4.75,0,0,1,1.18-.23h.09c.63.13,1.13.27,1.12.83v11.2c0,.81-.14,2-.95,2.09h0a2.42,2.42,0,0,1-.65-.27h-.08c-.23,0-.33.24-.43.37s-.71.76-.73,1.09a.19.19,0,0,0,.08.16.79.79,0,0,0,.33.05c.42,0,1.13-.13,1.63-.14s2.84-.12,3.64-.12h.22c.48,0,1.78,0,2,.1l.17,0a1.22,1.22,0,0,0,.82-.34,2.08,2.08,0,0,0,.35-1c0-.13-.06-.29-.24-.29"/><path
    class="cls-3"
    d="M278.41,19.55a.29.29,0,0,0-.21-.06c-.27,0-.48.24-.78.29a7.94,7.94,0,0,1-1.25.11h-.08l-2.85,0a2.86,2.86,0,0,1-1.12-.26.85.85,0,0,0-.23,0,1.8,1.8,0,0,0-1.54,1.09.57.57,0,0,0-.07.27c0,.25.24.37.5.37a1,1,0,0,0,.34-.05,1.84,1.84,0,0,1,.47-.06,2.17,2.17,0,0,1,.38,0c.74.09,1.11.37,1.11.94v2.64c0,.12-.07.29-.07.5a1.06,1.06,0,0,0,.49.82c.5.4,1.17,1.27,2,1.28h.11c.7-.1.68-1,.69-1.72v-.17c0-.36-.12-2.67-.12-3.07v-.32a.77.77,0,0,1,.68-.89,2.22,2.22,0,0,0,1.45-.91,1.09,1.09,0,0,0,.26-.53.33.33,0,0,0-.18-.28"/><path
    class="cls-3"
    d="M272.8,27.36c-.15-.12-.47-.49-.79-.5s-.42.31-.55.36a7.53,7.53,0,0,1-3.25.69,7.23,7.23,0,0,1-6.83-7.58c0-5.56,4.22-6.79,5.92-6.8a8.84,8.84,0,0,1,3.83.76,7.06,7.06,0,0,1,3.24,2.32c.41.48.71,1.38,1.49,1.4H276c.43-.07.52-.5.52-.95s-.11-1.12-.11-1.5v-.08a1.78,1.78,0,0,1,.34-1.15.56.56,0,0,0,.08-.27,1.31,1.31,0,0,0-.41-.75,1.36,1.36,0,0,0-.82-.54.37.37,0,0,0-.3.14c-.21.23-.46.52-.78.52s-.51-.16-1-.38a16,16,0,0,0-5.8-1c-4.2,0-9.56,2.55-9.57,9.06,0,4.77,3.78,8.28,9.83,8.29a12.49,12.49,0,0,0,4.94-1h0c.22-.07.43,0,.58-.19a.21.21,0,0,0,0-.13c0-.31-.55-.54-.73-.71"/><path
    class="cls-3"
    d="M250.47,27.66a1.71,1.71,0,0,0-.5.17,3.11,3.11,0,0,1-.8.08l-.47,0a1.6,1.6,0,0,1-1.65-1.6c0-.35,0-11,0-11.37,0-.74.27-1.19.72-1.2h.12l.75,0a.88.88,0,0,0,.51-.12,4.3,4.3,0,0,0,.64-.85,1.65,1.65,0,0,0,.23-.6.2.2,0,0,0-.14-.21.22.22,0,0,0-.11,0c-.32,0-1,.26-1.47.26s-2.06.17-2.89.17a14,14,0,0,1-2.33-.12c-.3-.07-.58-.29-.89-.29a.53.53,0,0,0-.44.24c-.22.31-.68.79-.69,1.16,0,.2.17.34.46.34a4.21,4.21,0,0,1,2.09.33c.32.34.34.44.35.62v11.2a5.77,5.77,0,0,1-.14,1.33c-.1.4-.27.65-.48.65h0c-.41,0-.74-.22-1.08-.22a.56.56,0,0,0-.44.22c-.33.43-.67.69-.69,1.07a.18.18,0,0,0,0,.06.45.45,0,0,0,.43.48h0a1,1,0,0,0,.28-.05,13.42,13.42,0,0,1,3.13-.33h2a8.2,8.2,0,0,1,1.37.07c.56.1.91.28,1.2.29l.11,0c.35-.11.84-1,1-1.42a.32.32,0,0,0,0-.13.19.19,0,0,0-.18-.18"/><path
    class="cls-3"
    d="M226.29,13a14.8,14.8,0,0,0-5.34-.89c-1.79,0-3.29.23-4.08.23a3,3,0,0,1-2-.51.47.47,0,0,0-.17,0c-.29,0-.48.27-.86.66s-.69.77-.7,1a.29.29,0,0,0,.18.27c.42.2.73.08,1,.22s.73.4.74,1.36V25.79c0,1.36-.15,1.79-.57,1.93s-1.54.2-1.59.84.61.9,1.45.9a5,5,0,0,0,.64-.05,31.12,31.12,0,0,1,3.9-.3c.5,0,2.11.14,3.39.14a7.64,7.64,0,0,0,1.28-.08c1.09-.22,4.2-.51,6.3-2.88A7.76,7.76,0,0,0,232,20.54a8.61,8.61,0,0,0-5.73-7.5m-8.15,1.69c0-.46,0-.85.72-.93.26,0,.69,0,1.21,0a12.73,12.73,0,0,1,4,.53,7.44,7.44,0,0,1,4.6,6.86c0,6.19-4.66,6.64-6.41,6.66a16.44,16.44,0,0,1-3.49-.49c-.53-.21-.66-.2-.68-.94s0-11.35,0-11.36v-.29"/>
</svg>
