<svg xmlns="http://www.w3.org/2000/svg" viewBox="0 0 101.25 31.27">
  <defs>
    <style>
      .cls-1,
      .cls-2 {
        fill: #231815;
      }
      .cls-1 {
        fill-rule: evenodd;
      }
    </style>
  </defs><path
    class="cls-1"
    d="M2.71,10.3l.11-.05A.26.26,0,0,1,3,10.3l.28.12a1,1,0,0,0,.36.1,58.33,58.33,0,0,1,6.21-.41,21.42,21.42,0,0,1,3.17.22,8.07,8.07,0,0,0,1.37.11c.51,0,.73-.14,1.07-.68a.25.25,0,0,1,.13-.15.2.2,0,0,1,.27.19,1,1,0,0,1-.07.24,3.28,3.28,0,0,1-.89,1.41,1.59,1.59,0,0,1-.78.42c-.22,0-.23,0-1.11-.38a7.1,7.1,0,0,0-2.33-.37c0,.58,0,1.06,0,1.32a6.23,6.23,0,0,1-.19,1.91,1.54,1.54,0,0,1-1.66,1.1A3.88,3.88,0,0,1,6.7,14.5a4.51,4.51,0,0,1-1-1.26.49.49,0,0,1,0-.11A.16.16,0,0,1,5.88,13L6,13A2.72,2.72,0,0,0,7.9,14c.55,0,.81-.18.91-.62a7.28,7.28,0,0,0,.1-1.12c0-.46,0-.53,0-1.2-3.39,0-5.51.43-6.38,1.23l-.1,0H2.3a.75.75,0,0,1-.2-.54,2,2,0,0,1,.61-1.52"/><path
    class="cls-1"
    d="M3.27,2.88c0-.94.32-1.73.67-1.79.17,0,.18,0,.5.26l.21.18c.15.12.16.13.33.13,1.15-.13,1.57-.16,3.32-.25a.64.64,0,0,0,.08-.33c0-.22,0-.61-.08-1A6.4,6.4,0,0,1,9.54,0a8.32,8.32,0,0,1,1,.15V1.34c1,0,1,0,1.77,0a12.92,12.92,0,0,0,1.89-.15A1.32,1.32,0,0,0,15.37.45a.25.25,0,0,1,.08,0,.23.23,0,0,1,.26.17.56.56,0,0,1,0,.13,1.61,1.61,0,0,1-.41.91c-.25.34-.27.37-.57.84-.15.24-.33.39-.48.39a2.4,2.4,0,0,1-.64-.16A13.47,13.47,0,0,0,10,2.25a24.41,24.41,0,0,0-6.12.69L3.6,3A.45.45,0,0,1,3.33,3Z"/><path
    class="cls-1"
    d="M5.08,3.77c0-.11,0-.12.14-.11.31.06.59.13.69.16a1.27,1.27,0,0,0,.3.06c.15,0,.15,0,1-.16a11.86,11.86,0,0,1,2.29-.2l.79,0a5.32,5.32,0,0,1,1.32.13,1.47,1.47,0,0,0,.48,0,1.93,1.93,0,0,0,.45-.22,1.09,1.09,0,0,1,.24-.11c.13,0,.15,0,.45.22l.38.27.51.45a.52.52,0,0,1,0,.21.45.45,0,0,1,0,.16c-.57.55-.6.65-.93,3.89a1.44,1.44,0,0,1-.21.58c-.05.08-.1.1-.3.1A2.86,2.86,0,0,1,11.63,9l-.26-.06h-.08L10,9c-.17,0-.17,0-2-.13l-.33,0a1.69,1.69,0,0,0-1.07.36,2.45,2.45,0,0,1-.69-.33c0-.46,0-1,0-1.24a7.56,7.56,0,0,0-.81-3.84m2.11,2a7,7,0,0,1,1.07-.11l1.21.08H9.8a3.18,3.18,0,0,0,.64-.12l.25-.1c.14,0,.3.09.44.33a1.41,1.41,0,0,1,.22.58.37.37,0,0,1-.27.35h-.37c-.14,0-.37,0-.63,0l-.95-.11-.54,0-.27,0a3.52,3.52,0,0,0-.46,0c-.45,0-.58.09-.65.28s0,.33,0,.42c0,.47.08.64.31.64s.82,0,1.58-.08q.33,0,1.08,0A10,10,0,0,1,11.86,8a.52.52,0,0,0,.07-.33c0-.18,0-.43,0-.46C12,6.5,12,5.88,12.1,5c-.09-.34-.09-.34-3-.51-.2,0-1.36,0-1.65.09S7,4.79,7,5.16a1.89,1.89,0,0,0,.18.61"/><path
    class="cls-1"
    d="M11.44,12.69a.45.45,0,0,1,0-.11.19.19,0,0,1,.19-.15l.11.06a2.93,2.93,0,0,0,2.82,1.45,1.62,1.62,0,0,0,1.08-.51,5.26,5.26,0,0,0,1.11-3.27,36.84,36.84,0,0,0,.12-4.31,9.06,9.06,0,0,0-.33-3.22.76.76,0,0,0-.39-.38.45.45,0,0,1-.08-.19.59.59,0,0,1,.07-.2,1.21,1.21,0,0,1,.46-.47A8,8,0,0,1,19.86.75c.18,0,1.15.09,1.32.12A10,10,0,0,0,22.37,1a2.17,2.17,0,0,0,.75-.3.25.25,0,0,1,.11-.05s.06,0,.17.08c.82.91,1.18,1.39,1.2,1.61a.29.29,0,0,1-.15.28c-.67.51-.74.9-.74,4.27a36.85,36.85,0,0,0,.28,5l.05.95,0,.48a6.31,6.31,0,0,1-.27,1.79.72.72,0,0,1-.78.55.78.78,0,0,1-.69-.58,7.22,7.22,0,0,1-.06-1.67l0-1a6.51,6.51,0,0,0-.05-1.59c-.06-.23-.45-.41-.81-.36l-.35.06a4.76,4.76,0,0,1-.8.07,4.33,4.33,0,0,1-.62,0l-.72,0-.43,0c-.19,0-.3.13-.32.37a6.76,6.76,0,0,1-.65,2.9A2.89,2.89,0,0,1,15,15.43c-1.61,0-2.77-.88-3.58-2.74m6.64-7.76a11.42,11.42,0,0,1,1.65-.12c.31,0,1.67,0,2,.07.69,0,.76-.12.78-1.29L22.61,3a2.32,2.32,0,0,0,0-.53C22.48,2.15,22,2,21.24,2h-.46A6.26,6.26,0,0,0,19.5,2h-.32c-.71,0-1.09.17-1.17.58a4.47,4.47,0,0,0-.08.9,11.82,11.82,0,0,0,.15,1.4m.14,4.51a4,4,0,0,1,1.51-.25h2.56c.12-1.18.17-1.8.17-2.28,0-.88-.1-1-1-1l-.54-.06a11.87,11.87,0,0,0-1.21,0,11.14,11.14,0,0,0-1.22.14.62.62,0,0,0-.4.26c.08,1,.11,1.53.11,2s0,.58,0,1.21Z"/><path
    class="cls-1"
    d="M29.91,2.46,30.25,2a4.21,4.21,0,0,0,.53-.83.17.17,0,0,1,.13-.08c.07,0,.09,0,.13.08a1.08,1.08,0,0,1,.13.18A1.32,1.32,0,0,0,32.49,2l1.23-.14c1.47-.18,3.45-.33,4.32-.33a23.74,23.74,0,0,1,4.65.29,4.3,4.3,0,0,0,.76,0c.38,0,.38,0,1.53-.69a.35.35,0,0,1,.12,0,.53.53,0,0,1,.18.07,4.3,4.3,0,0,1,1,1.05c.39.48.46.6.47.79a.39.39,0,0,1-.13.29c-.47.57-.48.67-.51,3.78.17,5.24.17,5.24.17,6.11,0,1.22-.27,1.82-.84,1.89s-.5,0-1-.63c-.17-.22-.22-.25-.57-.32H41.09l-3.5.07-2.08,0-1.12,0c-1.78-.06-2.32.09-3.08.88a.4.4,0,0,1-.13.1c-.05,0-.1,0-.18-.06a3.67,3.67,0,0,0-.2-.36L30,13.77a.34.34,0,0,1,0-.09.16.16,0,0,1,.12-.14c.63-.09.78-.4.78-1.55,0-.07,0-.07,0-1.2V10l-.11-2.32c0-.62-.06-2.07-.06-2.31,0-2-.15-2.44-.77-2.88m2.42,10.63c2.66-.19,2.71-.19,4.08-.22l2.82,0c.53,0,4.34.1,4.68.12.63,0,.77-.13.72-.85,0-.53-.05-.92-.05-1.43,0-.16,0-.6,0-1.2,0-.21,0-.52,0-.87,0-1.13,0-1.92.07-2.28,0-1.28.06-1.66.06-2.06,0-1-.16-1.23-.8-1.23h-.45l-.49,0c-.83,0-1.75,0-4.54-.21h-.88A21.77,21.77,0,0,0,35.37,3l-.84,0-.26,0a6.43,6.43,0,0,1-.76,0,4.38,4.38,0,0,0-.7,0,.68.68,0,0,0-.6.47,4,4,0,0,0-.08,1.1A13,13,0,0,0,32.24,6c0,.46.11,2.07.11,2.65s-.08,2.68-.17,4.35c0,.12,0,.14.15.13"/><path
    class="cls-1"
    d="M34,6.72a.3.3,0,0,1,.25-.09c.07,0,.11,0,.18.1.09.37.39.54.93.54l.45,0c1.29-.11,2.18-.15,3.22-.15a10,10,0,0,1,2.09.17,2.2,2.2,0,0,0,.5.09c.3,0,.51-.18.65-.55a.25.25,0,0,1,.07-.09c.14-.09.3,0,.3.25v.14C42.5,8.4,42.4,8.63,42,8.73a.69.69,0,0,0-.45.25.49.49,0,0,1-.23.15.34.34,0,0,1-.13,0,3.3,3.3,0,0,0-2-.45l-.43,0H37c-2.15,0-2.49.11-3.09,1l-.12.05c-.14,0-.16,0-.22-.48s.05-.55.07-.64l.27-1,0-.22c0-.07.06-.29.11-.53"/><path
    class="cls-1"
    d="M62,15.36a.45.45,0,0,1,0-.11.31.31,0,0,1,0-.09l.13-.05.16-.06a3,3,0,0,0,1.59-1.93,7.68,7.68,0,0,0,.36-1.95c0-.55.13-2.56.13-2.87,0,0,0-.16,0-.34,0-.46-.06-.87-.07-1.25-.05-2.7-.15-3.28-.87-4.87l.92-.95a.12.12,0,0,1,.08,0l.06,0,.3.21a1.54,1.54,0,0,0,.85.25,4.35,4.35,0,0,0,.5,0l.58,0h1.1c.17,0,1.21-.12,1.42-.16A4.42,4.42,0,0,0,70.58.55c.12-.1.22-.14.3-.11a.63.63,0,0,1,.24.21,6.08,6.08,0,0,1,1,1.25.43.43,0,0,1,.06.18c0,.18-.18.31-.43.31a3,3,0,0,1-.58-.09,4.26,4.26,0,0,0-.54,0,3.63,3.63,0,0,0-.61.05c-.65.09-1.48.19-1.69.19h-.73l-.52,0-.63,0h-.67c-.2,0-.35.09-.38.22s0,.09.22,1.14a7.21,7.21,0,0,1,.14,1.65v.36c0,.08,0,.09.13.1a15,15,0,0,1,2.43-.19A23.51,23.51,0,0,1,71.53,6l.33,0A1.55,1.55,0,0,0,73.29,5a2.21,2.21,0,0,0,.24-.68c.13-.13.2-.15.3-.11s.06,0,.13.1a1,1,0,0,1,0,.15A5,5,0,0,1,73.65,6c-.41,1.1-.85,1.68-1.3,1.68a1.09,1.09,0,0,1-.57-.18c-.83-.42-1-.48-1.35-.44a.73.73,0,0,0-.65.6,6.45,6.45,0,0,0-.08,1.6c0,.65.09,1.84.19,2.74s.17,1.63.17,2a2.65,2.65,0,0,1-.35,1.38.6.6,0,0,1-.55.26c-.32,0-.47-.13-.64-.55a3.09,3.09,0,0,1-.28-1.44c0-.21,0-.81.07-1.23a17.14,17.14,0,0,0,.12-1.8,14.77,14.77,0,0,0-.31-3.44.84.84,0,0,0-.89-.51A2.51,2.51,0,0,0,66.05,7c-.17.11-.21.31-.21,1,0,.13,0,.56,0,1.18,0,.38,0,.61,0,1.06a11.57,11.57,0,0,1-.32,2.81,2.87,2.87,0,0,1-1.89,2,4.34,4.34,0,0,1-1.55.32.2.2,0,0,1-.18-.07"/><path
    class="cls-1"
    d="M57.19,9.77l0-1.22h-.46a5.87,5.87,0,0,0-.81.07,2.3,2.3,0,0,1-.38,0l-.84-.05a4.18,4.18,0,0,0-.51,0,3.43,3.43,0,0,0-1.52.27.36.36,0,0,1-.41-.19V8.51a2.12,2.12,0,0,1,.5-.77.75.75,0,0,1,.6-.29,1.22,1.22,0,0,1,.26.12,1.52,1.52,0,0,0,.52.16l1.45-.05c.93,0,1.16,0,1.6-.07V7a1,1,0,0,1-.28-.67A12.11,12.11,0,0,0,52.12,7a.49.49,0,0,1-.18,0c-.14,0-.2,0-.19-.21a.22.22,0,0,0,0-.09,1,1,0,0,1,.14-.34l.55-1.16h0l0,0a.76.76,0,0,0,.49.3,1.32,1.32,0,0,0,.33,0l2.18-.24c0-.42,0-.56,0-.84l0-1.3a1.62,1.62,0,0,0-.1-.72c-.06-.06-.2-.08-.57-.08a3.7,3.7,0,0,0-1.67.52l-.24.2-.14.1h-.1A.21.21,0,0,1,52.5,3v0a9.46,9.46,0,0,1,.71-1.83,2.06,2.06,0,0,0,.71.36c1.42,0,1.63,0,3-.06V.23a3.91,3.91,0,0,1,1.37-.1A3,3,0,0,1,59,.21l0,1.19,1.78.12a5,5,0,0,0,.86,0A1.54,1.54,0,0,0,62.78,1a.47.47,0,0,1,.11-.1.13.13,0,0,1,.12,0A.16.16,0,0,1,63.1,1a.26.26,0,0,1,0,.12,2.35,2.35,0,0,1-.15.38L62.65,2l-.35.56c-.11.17-.2.25-.32.27h-.17l-.68-.15a9.24,9.24,0,0,0-1-.12c0,.44,0,.44,0,.86A11.53,11.53,0,0,1,60,5.44a6.54,6.54,0,0,0,1.59.2A2,2,0,0,0,63,4.76s0,0,.06,0a.19.19,0,0,1,.22.16,2.84,2.84,0,0,1-.48,1,8.12,8.12,0,0,1-.72.72c-.23.2-.34.26-.48.24l-.21-.07L60.9,6.6a6.19,6.19,0,0,0-2.26-.31,10.93,10.93,0,0,0-.07,1.27l.35,0h.5c.17,0,.57,0,1,.09a10.16,10.16,0,0,0,1.43.12,1.72,1.72,0,0,0,.54-.12l.07,0a.16.16,0,0,1,.14.16.25.25,0,0,1,0,.07l-.12.19a4.43,4.43,0,0,0-.24.4L62,9a.28.28,0,0,1-.17.17s0,0-.06,0A3.35,3.35,0,0,0,61.36,9l-.24,0-.77-.08a7.56,7.56,0,0,0-1.77-.23l0,1.21c1.65.1,1.93.11,3.94.25A1,1,0,0,0,63,9.86c.09-.1.14-.12.22-.12s.17.06.18.19a1.47,1.47,0,0,1-.4.65,3.84,3.84,0,0,0-.27.32c-.29.35-.29.35-.78.37l-.36.08c-.09,0-.17,0-.49-.18a6.84,6.84,0,0,0-2.44-.5A3.77,3.77,0,0,0,61,13.11a1.53,1.53,0,0,0,1.53-.85c0-.09.07-.11.14-.1s.1,0,.12.18a2.59,2.59,0,0,1-.34,1.07,2.23,2.23,0,0,1-1.63,1.26c-.4,0-1-.49-1.34-1.21a16.58,16.58,0,0,1-.89-1.9c0,.83,0,1.6,0,1.86s0,.34,0,.41c0,.4,0,.66,0,.67,0,.19,0,.33,0,.39a.83.83,0,0,1-.85.71.89.89,0,0,1-.8-1.08c0-.12.05-.38.12-.76a26,26,0,0,0,.18-3l-.41.87a14.78,14.78,0,0,1-1.48,2.82,1.41,1.41,0,0,1-1,.7c-.85,0-1.84-1.08-2.36-2.57,0-.15.11-.23.23-.17a.4.4,0,0,1,.12.11,2.39,2.39,0,0,0,1.75,1c.62,0,1.25-.58,1.95-1.8a2.94,2.94,0,0,0,.46-1,10.41,10.41,0,0,0-4.33.88.26.26,0,0,1-.14.07c-.12,0-.23-.13-.24-.3a2.66,2.66,0,0,1,.33-1.31c.06-.1.12-.16.16-.17a.38.38,0,0,1,.2.07.72.72,0,0,0,.28.11,5.15,5.15,0,0,0,1.41-.11c.23,0,1.62-.08,2.09-.08h.92m-.36-4.54h.78a7.62,7.62,0,0,1,1.17.06,2,2,0,0,1-.15-.83,7,7,0,0,1,.13-1.12,1.62,1.62,0,0,0,0-.23,3.33,3.33,0,0,0-.11-.69l-.76,0h-.77c-.23,0-.32.1-.32.34,0,.08,0,.27,0,.46s0,.38,0,.71l0,.8c0,.24,0,.24,0,.52"/><path
    class="cls-1"
    d="M90.57,16.31a1.82,1.82,0,0,1,0-.2v-1c0-.2-.3-.27-.77-.2a14.29,14.29,0,0,1-1.76.06h-.39l-.39,0c-.3,0-.8,0-1.39,0l-1.2,0c-.47,0-1.9.07-2.11.1a4.61,4.61,0,0,0-1.45.56.48.48,0,0,1-.14,0,.26.26,0,0,1-.29-.27,1.36,1.36,0,0,1,0-.21,1.71,1.71,0,0,1,.18-.36,9.63,9.63,0,0,0,.49-.93c0-.14.09-.21.15-.22s.07,0,.21.06a1.15,1.15,0,0,0,.51.32,1.11,1.11,0,0,0,.32,0l.81-.09c0-.43,0-.72,0-.85l-.11-1.48V11a11.25,11.25,0,0,1,.07-1.33c0-.23,0-.44.07-.83h-.31a2.3,2.3,0,0,0-1.65.55.38.38,0,0,1-.31.12c-.1,0-.13,0-.14-.15V9.28l0-.13V9a.54.54,0,0,1,.09-.25l.33-.56a4.49,4.49,0,0,0,.24-.55c.08-.15.17-.23.25-.22a.52.52,0,0,1,.26.14c.23.2.25.21.5.21l.48,0a11.3,11.3,0,0,1,1.23,0H85c2.66.08,5.65.13,7,.13h.13a1.78,1.78,0,0,0,1.3-.44.38.38,0,0,1,.19-.06c.1,0,.16.06.17.2l-.24.5-.34.71L93.1,9a.29.29,0,0,1-.28.19c-.1,0-.14,0-.4-.13a2.14,2.14,0,0,0-1.26-.21c-.82.05-.82.05-2,.05-2.16,0-2.87,0-4.6-.06a3.2,3.2,0,0,0-.06.42c0,.46.12.64.48.63h.39l.83.05.78,0c.38,0,.38,0,1.45,0l.76,0a3.29,3.29,0,0,0,1.56-.36.39.39,0,0,1,.15,0,3.39,3.39,0,0,1,1.5.81c0,.07-.08.18-.24.31a1.45,1.45,0,0,0-.34.34,1.94,1.94,0,0,0,0,.45s0,.16,0,.37v1.53c0,.1,0,.23.12,1.56a4.36,4.36,0,0,1,.06.89c0,.55-.26.84-.71.91s-.69-.05-.79-.38m-5.8-4.09a18.17,18.17,0,0,1,3-.22h2.08c.56,0,.72-.12.72-.56s-.11-.48-.37-.5l-.64,0h-.25l-.52,0-.73,0a21.59,21.59,0,0,1-2.37-.08c-.81-.08-1,.07-1,.66a3.15,3.15,0,0,0,.1.62M90.55,14a.73.73,0,0,0,.11-.41c0-.44-.24-.62-.85-.62l-.53,0-.73,0h-2.3a6.16,6.16,0,0,0-1.2.09c-.17.06-.19.08-.23.26s0,.26,0,.56c1,0,1.14,0,2.47,0,1.74,0,2,0,3.31.06"/><path
    class="cls-1"
    d="M88.58,2l-.18-.25a.29.29,0,0,1-.08-.14c0-.1,0-.1.27-.41L89,.77l.25-.26.11-.12a.35.35,0,0,1,.19-.08l.16,0,.3.21.27.19c.38.28.46.32.69.32l.29,0h.56l1.32,0L95,1c.17,0,.17,0,.48-.24L95.6.66c.35-.28.35-.28.45-.25a.54.54,0,0,1,.22.15c.32.2.4.26.83.56.15.11.23.21.24.27a.88.88,0,0,1-.15.41c-.35.63-.38.92-.38,3.6,0,2.12.18,8,.28,8.9a5.77,5.77,0,0,1,0,.79,2,2,0,0,1-.35,1.16.69.69,0,0,1-.63.3c-.35,0-.58-.23-.67-.67-.06-.25-.14-1.88-.14-2.59V10.56c0-.05,0-.23,0-.49,0-.45,0-1,0-1.55,0-1.93,0-2-.8-2a9.52,9.52,0,0,0-1.1.07A9.37,9.37,0,0,1,92,6.6h-.7a6.43,6.43,0,0,0-.75,0c-.09,0-.09,0-.41.21a1.08,1.08,0,0,1-.46.12c-.67,0-.94-.46-.94-1.64l0-.89,0-.9c0-.34,0-.56,0-.62A1.91,1.91,0,0,0,88.58,2M90.3,3.27l3.62-.08c.52,0,.81,0,1.5,0,0-.25,0-.42,0-.56s0-.29,0-.52L95,2.1h-.23l-.86,0h-.6L91.81,2a7.48,7.48,0,0,1-.9-.06c-.47-.07-.65,0-.67.3a6.62,6.62,0,0,0,.06,1m0,.89c0,.26,0,.48,0,.6s0,.42,0,.75l.08,0a8.2,8.2,0,0,1,1,0c.66,0,1.15,0,1.7,0s.84,0,1.06,0l1.08-.06a4.56,4.56,0,0,0,.15-1.19V4.06h-.81l-1.37,0H92.6l-.35,0-.38,0c-.94,0-.94,0-1.33,0l-.2,0"/><path
    class="cls-1"
    d="M77.54,1.92a.53.53,0,0,1,0-.13c0-.09,0-.09.44-.58l.27-.35.37-.41a.2.2,0,0,1,.15-.08A.84.84,0,0,1,79,.51l.21.11.25.16a.35.35,0,0,0,.21.06l.16,0h.55l.5,0A23,23,0,0,1,83.63,1a.78.78,0,0,0,.7-.2l.39-.29L85,.32l.09,0c.08,0,.14.05.32.2l.08.07.34.26c.7.59.7.59.71.69a1,1,0,0,1-.24.4c-.37.47-.44.87-.44,2.35l0,1.38c0,.94-.16,1.24-.66,1.24-.7,0-.78,0-1-.52l-2.5,0-2.23,0c.05,1.89.05,2.35.05,4a38.14,38.14,0,0,1-.43,5.47c-.09.56-.22.72-.63.76a.62.62,0,0,1-.67-.35,1.84,1.84,0,0,1-.34-1,3.19,3.19,0,0,1,.18-.89,8.87,8.87,0,0,0,.29-2.19c0-1.06.15-3.9.15-4.5V3.83c0-1.14,0-1.29-.52-1.91M84.4,3c0-.1,0-.23,0-.23V2.63c0-.59-.17-.77-.61-.77h-.4q-.45,0-1,0c-.2,0-.2,0-1.44-.11-.31,0-.64,0-.86,0-.45,0-.59.05-.69.24s0,.27,0,.31a5.32,5.32,0,0,0,0,.54l.78.08.48.05c.21,0,.33,0,.47,0,.35,0,.77.05,1.15.06H84l.42,0m0,.86c-1.85,0-2.07,0-2.81,0H80.49a5.24,5.24,0,0,0-1,.09l0,1.36,1.59,0H82c.76,0,1.36,0,1.81.07s.52-.06.55-.29a3.51,3.51,0,0,0,0-.54V3.9Z"/><path class="cls-2" d="M101.21,22.84h0c-12.49-2.79-30.52-4.53-50.58-4.54S12.54,20.05.06,22.84H0a.06.06,0,0,0,0,.07.07.07,0,0,0,.06,0c13.16-2.18,31-3.52,50.56-3.52S88,20.77,101.19,23h0s0,0,0,0a.06.06,0,0,0,0-.07"/><path
    class="cls-2"
    d="M91.47,29c0-.07-.08-.07-.14-.08a.17.17,0,0,0-.18.1A2,2,0,0,1,90,30.11a2.5,2.5,0,0,1-1.13.24c-.61,0-1,.06-1.28.06h-.19c-.17,0-.34-.07-.34-.47,0-.14,0-4.61,0-4.78s.09-.4.2-.45a1.25,1.25,0,0,1,.32,0l.19,0a.44.44,0,0,0,.18,0,.35.35,0,0,0,.19-.06,1.3,1.3,0,0,0,.43-.66.1.1,0,0,0,0-.07.09.09,0,0,0-.09-.06.22.22,0,0,0-.16.08,2.41,2.41,0,0,1-.84.12l-1.19,0c-.29,0-.72-.05-.88-.06a4.22,4.22,0,0,0-.46-.12.23.23,0,0,0-.18.08,1.42,1.42,0,0,0-.31.61.16.16,0,0,0,.07.14h0c.11,0,.35-.1.49-.1h0a1.16,1.16,0,0,1,.35,0c.24.09.34.22.34.35V30c0,.14-.08.52-.16.56a.38.38,0,0,1-.19,0,.28.28,0,0,1-.15,0,.47.47,0,0,0-.17-.06.1.1,0,0,0-.09.05c-.06.08-.17.36-.23.47a.17.17,0,0,0,0,.12.14.14,0,0,0,.13.15h.06a5,5,0,0,1,.58-.12,9.49,9.49,0,0,1,1,0h1.11l1.52,0c.37,0,.76,0,1,.05s.43.11.6.11h.05a.51.51,0,0,0,.37-.3,2.65,2.65,0,0,0,.23-.69,5.55,5.55,0,0,0,.09-1.11c0-.06,0-.12,0-.17"/><path
    class="cls-2"
    d="M79.31,30.16a.06.06,0,0,0-.06,0h0a.5.5,0,0,1-.53.33.62.62,0,0,1-.32-.07,3.26,3.26,0,0,1-.37-.63s-2.3-5-2.35-5a.14.14,0,0,1,0-.06.27.27,0,0,1,.11-.17s.13-.09.14-.18a.21.21,0,0,0-.08-.14c-.14-.12-.49-.59-.77-.63h0a.3.3,0,0,0-.21.14,1.42,1.42,0,0,1-.14.41l-3,5.85a1.3,1.3,0,0,1-.31.44.6.6,0,0,1-.38.12h-.07c-.24,0-.2.21-.42.56a.09.09,0,0,0,0,.07c0,.07.09.08.15.08a3.22,3.22,0,0,0,.55-.1,5.55,5.55,0,0,1,.94,0,3.93,3.93,0,0,1,.92.12h0c.2,0,.37-.33.42-.44a1.15,1.15,0,0,0,.09-.28.14.14,0,0,0-.11-.14h0c-.15,0-.17.15-.48.15l-.29,0c-.09,0-.12-.06-.13-.17a1.4,1.4,0,0,1,.08-.36,12.51,12.51,0,0,1,.62-1.21.3.3,0,0,1,.2-.11H74.7l.39,0,.25.06.06,0a.09.09,0,0,0,.09-.05.08.08,0,0,0,0,0,1.92,1.92,0,0,0-.22-.43,1.76,1.76,0,0,1-.19-.4.13.13,0,0,0-.13-.1h-.08l-.12.08a.22.22,0,0,1-.12,0H73.7l0,0c.07-.14.89-1.95,1-2.1,0,0,0,0,0,.05s1.09,2.31,1.12,2.4a22.9,22.9,0,0,1,1,2.24v.05c0,.11-.07.14-.16.15l-.08,0-.08,0c-.2,0-.26.31-.35.51,0,0,0,0,0,.06a.11.11,0,0,0,.12.1,1.36,1.36,0,0,0,.36-.09l.64,0h1.18c.18,0,.27.13.48.14h0c.26,0,.42-.78.48-1v0a.09.09,0,0,0-.1-.09"/><path
    class="cls-2"
    d="M66.5,23.63h0a.19.19,0,0,0-.18.11A.89.89,0,0,1,66,24a1,1,0,0,1-.43.1H59.7c-.32,0-.54-.2-.76-.2s-.48.58-.64.78a.61.61,0,0,0-.14.36.3.3,0,0,0,.15.27.24.24,0,0,0,.14.05,1.09,1.09,0,0,0,.25-.07c.22-.07.45-.22.6-.25a3.35,3.35,0,0,1,.71-.09h1.44c.08,0,.09,0,.1.1v4.84c0,.26,0,.56-.15.65a.43.43,0,0,1-.31.1H61a3.54,3.54,0,0,1-.39-.13h0c-.1,0-.11.1-.18.17a2.4,2.4,0,0,0-.26.41.14.14,0,0,0,0,.07.09.09,0,0,0,.09.09h0a6.47,6.47,0,0,1,.73-.08c.33,0,.54,0,1.11,0h1.3a.88.88,0,0,1,.24,0,1.81,1.81,0,0,0,.32.05c.12,0,.19-.07.26-.22a3.72,3.72,0,0,0,.16-.44v0l0,0a.12.12,0,0,0-.08,0,.08.08,0,0,0-.06,0,.45.45,0,0,1-.28.13h-.32l-.28,0c-.13,0-.49-.08-.5-.67V25c0-.09,0-.1.1-.1h1.52a1.18,1.18,0,0,1,.75.21.39.39,0,0,0,.32.16h0c.12,0,.42-.13.72-.71a2.32,2.32,0,0,0,.28-.77h0s0-.15-.1-.18"/><path
    class="cls-2"
    d="M52.16,30.49h0c-.15,0-.2.07-.37.09s-.2,0-.27,0a.45.45,0,0,1-.2-.06.66.66,0,0,1-.42-.63V25.2c0-.26.13-.54.29-.56h0a1.08,1.08,0,0,1,.35.07h0c.13,0,.21-.2.31-.33a1,1,0,0,0,.21-.38.09.09,0,0,0,0-.07H52a1,1,0,0,0-.28.08c-.06,0-.62,0-.85,0H49.64a3.77,3.77,0,0,1-.76-.07H48.8c-.12,0-.13.1-.24.33a1.11,1.11,0,0,0-.14.38.1.1,0,0,0,.09.1l.06,0a2.5,2.5,0,0,1,.49-.09h0c.26.06.47.12.47.35v4.71c0,.35-.06.85-.4.88h0c-.08,0-.21-.08-.28-.11h0c-.09,0-.13.11-.18.16s-.29.32-.3.46a.11.11,0,0,0,0,.07.3.3,0,0,0,.14,0c.18,0,.48,0,.69-.06s1.19-.05,1.53-.05h.09c.2,0,.75,0,.85,0h.07a.51.51,0,0,0,.34-.14.93.93,0,0,0,.15-.41c0-.06,0-.12-.1-.12"/><path
    class="cls-2"
    d="M42,27.09l-.09,0c-.11,0-.2.1-.33.12a2.82,2.82,0,0,1-.52,0H39.84a1.34,1.34,0,0,1-.47-.11l-.1,0a.77.77,0,0,0-.64.47.19.19,0,0,0,0,.1c0,.11.1.16.21.16a.36.36,0,0,0,.14,0,.68.68,0,0,1,.2,0h.16c.31,0,.46.16.47.4v1.1c0,.06,0,.13,0,.22a.43.43,0,0,0,.2.34c.21.17.49.54.85.54h.05c.29-.05.28-.42.29-.73v-.07c0-.15,0-1.12,0-1.29V28.2a.32.32,0,0,1,.28-.38.91.91,0,0,0,.61-.38.44.44,0,0,0,.11-.23.12.12,0,0,0-.07-.12"/><path
    class="cls-2"
    d="M39.66,30.38c-.06-.05-.2-.2-.34-.21s-.17.13-.23.15a3.12,3.12,0,0,1-1.36.29,3,3,0,0,1-2.88-3.19,2.6,2.6,0,0,1,2.5-2.86,3.64,3.64,0,0,1,1.6.32,3,3,0,0,1,1.37,1c.17.2.3.58.62.59H41c.18,0,.22-.21.22-.4s0-.47,0-.63v0a.82.82,0,0,1,.14-.49.15.15,0,0,0,0-.11.56.56,0,0,0-.17-.32c-.09-.09-.21-.22-.35-.22a.18.18,0,0,0-.13.06.46.46,0,0,1-.32.21c-.15,0-.22-.06-.43-.16a6.92,6.92,0,0,0-2.44-.41,3.8,3.8,0,0,0-4,3.82c0,2,1.59,3.48,4.14,3.49a5.35,5.35,0,0,0,2.08-.43h0c.09,0,.18,0,.24-.08a.07.07,0,0,0,0-.06c0-.13-.23-.23-.3-.3"/><path
    class="cls-2"
    d="M27.17,30.51a1,1,0,0,0-.21.07.87.87,0,0,1-.33,0h-.2a.66.66,0,0,1-.69-.67c0-.15,0-4.61,0-4.78s.12-.51.3-.51h.37a.38.38,0,0,0,.22,0,1.66,1.66,0,0,0,.26-.36A.53.53,0,0,0,27,24a.1.1,0,0,0-.06-.09h0c-.14,0-.42.11-.62.11s-.87.07-1.22.07a5.51,5.51,0,0,1-1-.05,2,2,0,0,0-.37-.12.23.23,0,0,0-.19.1c-.09.13-.28.34-.29.49s.07.14.2.14c.35,0,.76,0,.87.14s.15.19.15.26v4.72a2.09,2.09,0,0,1-.06.56c0,.16-.11.27-.2.27h0c-.18,0-.32-.09-.46-.09a.21.21,0,0,0-.18.09c-.15.18-.29.29-.29.45v0a.19.19,0,0,0,.18.21h0l.11,0a5.69,5.69,0,0,1,1.32-.14h.85a4.2,4.2,0,0,1,.58,0,3.73,3.73,0,0,0,.5.12h0c.15,0,.35-.42.41-.6a.11.11,0,0,0,0-.05.08.08,0,0,0-.08-.08"/><path
    class="cls-2"
    d="M14.32,24.35A6.46,6.46,0,0,0,12.07,24c-.75,0-1.38.1-1.72.1a1.28,1.28,0,0,1-.85-.22H9.43c-.12,0-.2.11-.36.28s-.29.32-.3.42a.13.13,0,0,0,.08.11c.18.09.31,0,.43.1s.31.17.31.57v4.39c0,.57-.06.75-.24.81s-.65.09-.67.36.26.37.61.37a1.23,1.23,0,0,0,.27,0,13.72,13.72,0,0,1,1.64-.12c.21,0,.89.06,1.43.06a2.77,2.77,0,0,0,.54,0,4.3,4.3,0,0,0,2.65-1.21,3.27,3.27,0,0,0,.91-2.42,3.64,3.64,0,0,0-2.41-3.16m-3.43.72c0-.2,0-.36.3-.39l.51,0a5.55,5.55,0,0,1,1.7.22,3.15,3.15,0,0,1,1.93,2.89,2.49,2.49,0,0,1-2.69,2.8,7.21,7.21,0,0,1-1.47-.2c-.22-.1-.28-.09-.29-.4s0-4.78,0-4.78v-.12"/>
</svg>
