<svg xmlns="http://www.w3.org/2000/svg" viewBox="0 0 191.1 16.71">
  <defs>
    <style>
      .cls-1,
      .cls-3 {
        fill: #231815;
      }
      .cls-1 {
        fill-rule: evenodd;
      }
      .cls-2 {
        fill: #4d4d4d;
      }
    </style>
  </defs>
  <path
    class="cls-1"
    d="M.61,10.3l.11-.05a.26.26,0,0,1,.17.05l.28.11a.88.88,0,0,0,.36.11,55.82,55.82,0,0,1,6.21-.41,20.15,20.15,0,0,1,3.17.22,8.08,8.08,0,0,0,1.38.1c.5,0,.72-.13,1.07-.67a.21.21,0,0,1,.12-.15.2.2,0,0,1,.27.19,1.16,1.16,0,0,1-.07.24,3.28,3.28,0,0,1-.89,1.41,1.59,1.59,0,0,1-.78.42c-.22,0-.23,0-1.11-.38a7.05,7.05,0,0,0-2.33-.37c0,.58,0,1.06,0,1.32a6.23,6.23,0,0,1-.19,1.91,1.54,1.54,0,0,1-1.66,1.1,3.82,3.82,0,0,1-2.13-.95,4.35,4.35,0,0,1-1-1.26.49.49,0,0,1,0-.11A.16.16,0,0,1,3.78,13l.13.06A2.74,2.74,0,0,0,5.8,14c.55,0,.81-.18.91-.62a6.21,6.21,0,0,0,.1-1.12c0-.46,0-.53,0-1.2-3.39,0-5.51.43-6.38,1.23l-.1,0H.2a.75.75,0,0,1-.2-.54A2,2,0,0,1,.61,10.3"/><path
    class="cls-1"
    d="M1.17,2.88c0-.94.32-1.73.67-1.79.17,0,.18,0,.5.26l.21.18c.15.12.16.13.33.13C4,1.53,4.45,1.5,6.2,1.41a.64.64,0,0,0,.08-.33,7.7,7.7,0,0,0-.08-1A6.4,6.4,0,0,1,7.44,0a8.67,8.67,0,0,1,1,.15V1.34c1,0,1,0,1.77,0a12.81,12.81,0,0,0,1.89-.15A1.32,1.32,0,0,0,13.27.45a.25.25,0,0,1,.08,0,.23.23,0,0,1,.26.16.33.33,0,0,1,0,.14,1.61,1.61,0,0,1-.41.91c-.25.34-.27.37-.57.84-.15.24-.33.39-.48.39a2.4,2.4,0,0,1-.64-.16,13.42,13.42,0,0,0-3.57-.43,24.27,24.27,0,0,0-6.11.69L1.5,3A.45.45,0,0,1,1.23,3Z"/><path
    class="cls-1"
    d="M3,3.76c0-.1,0-.11.14-.1.31.06.59.13.69.16a2.18,2.18,0,0,0,.3.06c.15,0,.15,0,1-.16a11.86,11.86,0,0,1,2.29-.2l.79,0a5.32,5.32,0,0,1,1.32.13,1.47,1.47,0,0,0,.48,0,1.76,1.76,0,0,0,.45-.22,1.09,1.09,0,0,1,.24-.11c.13,0,.15,0,.45.22l.38.27.51.45a.57.57,0,0,1,.06.21.54.54,0,0,1-.05.16c-.58.55-.6.65-.93,3.89a1.44,1.44,0,0,1-.21.58c-.05.08-.1.1-.3.1A2.86,2.86,0,0,1,9.53,9l-.26-.06H9.19L7.89,9c-.17,0-.17,0-2-.13l-.33,0a1.65,1.65,0,0,0-1.06.36,2.67,2.67,0,0,1-.7-.33c0-.46,0-1,0-1.24A7.64,7.64,0,0,0,3,3.76m2.12,2a6.82,6.82,0,0,1,1.06-.11l1.21.08H7.7a3.18,3.18,0,0,0,.64-.12l.25-.1c.14,0,.3.09.44.33a1.41,1.41,0,0,1,.22.58A.37.37,0,0,1,9,6.79H8.61c-.14,0-.37,0-.63,0L7,6.64l-.55,0-.27,0a3.52,3.52,0,0,0-.46,0c-.45,0-.58.09-.65.28a4.06,4.06,0,0,0,0,.42c0,.47.08.64.31.64s.82,0,1.58-.09l1.08,0A10,10,0,0,1,9.76,8a.54.54,0,0,0,.07-.34c0-.17,0-.42,0-.45.05-.68.1-1.3.16-2.18-.1-.34-.1-.34-3-.51-.2,0-1.36,0-1.65.09s-.51.21-.47.58a1.72,1.72,0,0,0,.19.61"/><path
    class="cls-1"
    d="M9.34,12.69a.45.45,0,0,1,0-.11.19.19,0,0,1,.19-.15l.11.06a2.93,2.93,0,0,0,2.82,1.45,1.62,1.62,0,0,0,1.08-.51,5.26,5.26,0,0,0,1.11-3.27,36.84,36.84,0,0,0,.12-4.31,9.41,9.41,0,0,0-.32-3.22.82.82,0,0,0-.4-.38A.45.45,0,0,1,14,2.06a.59.59,0,0,1,.07-.2,1.21,1.21,0,0,1,.46-.47A8,8,0,0,1,17.77.75c.17,0,1.14.09,1.31.12A10,10,0,0,0,20.27,1,2.17,2.17,0,0,0,21,.74l.11-.05s.07,0,.17.08c.82.91,1.18,1.39,1.2,1.61a.29.29,0,0,1-.15.28c-.67.51-.74.9-.74,4.27a36.85,36.85,0,0,0,.28,5l.05.95,0,.48a6.31,6.31,0,0,1-.27,1.79.72.72,0,0,1-.79.55.78.78,0,0,1-.68-.58,7.22,7.22,0,0,1-.06-1.67l0-1a6.51,6.51,0,0,0,0-1.59c-.06-.23-.45-.41-.81-.36l-.35.06a4.76,4.76,0,0,1-.8.07,4.33,4.33,0,0,1-.62,0l-.72,0-.43,0c-.18,0-.3.13-.32.37a6.76,6.76,0,0,1-.65,2.9,2.89,2.89,0,0,1-2.47,1.69c-1.62,0-2.77-.88-3.59-2.74M16,4.93a11.39,11.39,0,0,1,1.64-.12c.32,0,1.68,0,2,.07.69,0,.76-.12.78-1.29L20.51,3a2.32,2.32,0,0,0,0-.53c-.09-.36-.55-.54-1.33-.53h-.46A6.31,6.31,0,0,0,17.4,2h-.32c-.71,0-1.09.17-1.17.58a5.35,5.35,0,0,0-.08.9A11.82,11.82,0,0,0,16,4.93m.14,4.51a4,4,0,0,1,1.51-.26h.57l.92,0c.56,0,.56,0,1.07,0,.12-1.18.17-1.8.17-2.28,0-.88-.1-1-1-1l-.54,0a12,12,0,0,0-1.21,0,11.14,11.14,0,0,0-1.22.14.64.64,0,0,0-.4.25c.08,1,.11,1.54.11,2s0,.58,0,1.21Z"/><path
    class="cls-1"
    d="M27.81,2.46c.12-.16.24-.34.35-.48a5,5,0,0,0,.53-.82.14.14,0,0,1,.12-.08.14.14,0,0,1,.13.08l.14.18A1.29,1.29,0,0,0,30.39,2l1.23-.14c1.48-.18,3.45-.33,4.32-.33a23.74,23.74,0,0,1,4.65.29,4.3,4.3,0,0,0,.76,0c.38,0,.38,0,1.53-.69a.35.35,0,0,1,.12,0,.53.53,0,0,1,.18.07,4.3,4.3,0,0,1,1,1.05c.39.48.46.6.47.79a.39.39,0,0,1-.13.29C44.05,3.88,44,4,44,7.09c.17,5.24.17,5.24.17,6.11,0,1.22-.27,1.82-.84,1.89s-.49,0-1-.63c-.17-.22-.22-.25-.57-.32H39l-3.5.07-2.08,0-1.12,0c-1.78-.06-2.32.09-3.08.88a.4.4,0,0,1-.13.1s-.1,0-.18-.06a3.67,3.67,0,0,0-.2-.36l-.79-1.05a.34.34,0,0,1,0-.09.16.16,0,0,1,.12-.14c.63-.09.78-.4.78-1.55,0-.07,0-.07,0-1.2V10l-.11-2.32c0-.62-.06-2.07-.05-2.31,0-2-.16-2.44-.78-2.88m2.42,10.63c2.66-.19,2.71-.19,4.08-.22l2.82,0c.53,0,4.34.1,4.68.12.64,0,.77-.13.72-.85,0-.53-.05-.92-.05-1.44,0-.15,0-.59,0-1.19,0-.21,0-.52,0-.87,0-1.13.05-1.92.07-2.28,0-1.28.07-1.66.07-2.06,0-1-.17-1.23-.81-1.23h-.45l-.49,0c-.83,0-1.75,0-4.54-.21h-.88A21.77,21.77,0,0,0,33.27,3l-.84,0-.26,0a6.43,6.43,0,0,1-.76,0,6,6,0,0,0-.7,0,.68.68,0,0,0-.6.47A4,4,0,0,0,30,4.54,13.26,13.26,0,0,0,30.14,6c.05.45.12,2.06.12,2.64s-.09,2.68-.18,4.35c0,.12,0,.14.15.13"/><path
    class="cls-1"
    d="M31.94,6.72a.3.3,0,0,1,.25-.09c.07,0,.11,0,.18.1.09.37.39.54.93.54l.45,0C35,7.14,35.93,7.1,37,7.1a10,10,0,0,1,2.09.17,2.2,2.2,0,0,0,.5.09c.3,0,.51-.19.65-.55a.25.25,0,0,1,.07-.09c.14-.09.3,0,.3.25v.14c-.18,1.29-.28,1.52-.7,1.62a.69.69,0,0,0-.45.25.49.49,0,0,1-.23.15.34.34,0,0,1-.13,0,3.3,3.3,0,0,0-2-.45l-.43,0H34.88c-2.15,0-2.49.11-3.09,1l-.12.06c-.13,0-.16,0-.22-.48s.05-.55.07-.64l.27-1,.05-.22c0-.07.05-.29.1-.53"/><path
    class="cls-1"
    d="M59.88,15.36a.45.45,0,0,1,0-.11.31.31,0,0,1,0-.09l.13-.05.16-.06a3.06,3.06,0,0,0,1.59-1.93,7.68,7.68,0,0,0,.36-1.95c0-.55.13-2.56.13-2.87,0,0,0-.16,0-.34,0-.46-.06-.87-.07-1.25,0-2.7-.15-3.28-.87-4.87l.93-.95s0,0,.07,0l.06,0,.3.21a1.54,1.54,0,0,0,.85.25,4.35,4.35,0,0,0,.5,0l.58,0h1.1c.17,0,1.21-.12,1.42-.16A4.42,4.42,0,0,0,68.48.55c.12-.1.22-.14.3-.11A.63.63,0,0,1,69,.65,5.82,5.82,0,0,1,70,1.9a.43.43,0,0,1,.06.18c0,.18-.17.31-.43.31A3,3,0,0,1,69,2.3a4.26,4.26,0,0,0-.54,0,3.63,3.63,0,0,0-.61.05c-.65.09-1.48.19-1.69.19h-.73l-.52,0-.63,0h-.67c-.2,0-.35.09-.38.22s0,.09.22,1.14a7.21,7.21,0,0,1,.14,1.65v.36c0,.08,0,.09.13.1a14.91,14.91,0,0,1,2.44-.2A23.46,23.46,0,0,1,69.43,6l.34,0A1.57,1.57,0,0,0,71.2,5a2.67,2.67,0,0,0,.23-.69c.13-.13.2-.15.3-.11a.27.27,0,0,1,.13.09,1.37,1.37,0,0,1,0,.16A4.78,4.78,0,0,1,71.55,6c-.41,1.1-.85,1.68-1.29,1.68a1.09,1.09,0,0,1-.58-.18c-.83-.42-1-.48-1.35-.44a.73.73,0,0,0-.65.6,6.76,6.76,0,0,0-.07,1.6c0,.65.08,1.84.18,2.74s.17,1.63.17,2a2.66,2.66,0,0,1-.35,1.39.6.6,0,0,1-.55.26c-.32,0-.47-.13-.64-.55a3.09,3.09,0,0,1-.28-1.44c0-.21,0-.81.07-1.23a17.14,17.14,0,0,0,.12-1.8A14.77,14.77,0,0,0,66,7.25a.84.84,0,0,0-.89-.51A2.51,2.51,0,0,0,64,7c-.17.11-.21.31-.21,1,0,.13,0,.56,0,1.18,0,.38,0,.61,0,1.06a11.42,11.42,0,0,1-.32,2.8,2.87,2.87,0,0,1-1.89,2,4.34,4.34,0,0,1-1.55.32.21.21,0,0,1-.18-.07"/><path
    class="cls-1"
    d="M55.09,9.77l0-1.22h-.46a5.87,5.87,0,0,0-.81.07,2.3,2.3,0,0,1-.38,0l-.84-.05a4.1,4.1,0,0,0-.51,0,3.45,3.45,0,0,0-1.52.27.36.36,0,0,1-.41-.19V8.51a2.12,2.12,0,0,1,.5-.77.75.75,0,0,1,.6-.29,1.22,1.22,0,0,1,.26.12,1.52,1.52,0,0,0,.52.16l1.45-.05c.93,0,1.16,0,1.6-.08V7a1,1,0,0,1-.28-.67A12.11,12.11,0,0,0,50,7a.49.49,0,0,1-.18,0c-.13,0-.2,0-.19-.21a.22.22,0,0,0,0-.09,1,1,0,0,1,.14-.34l.55-1.16h0l0,0a.78.78,0,0,0,.49.3,1.32,1.32,0,0,0,.33,0l2.18-.24c0-.42,0-.56,0-.84l0-1.3a1.71,1.71,0,0,0-.1-.73c-.06-.06-.2-.07-.57-.07a3.7,3.7,0,0,0-1.67.52l-.24.2-.14.1h-.09A.22.22,0,0,1,50.4,3v0a9.46,9.46,0,0,1,.71-1.83,2.06,2.06,0,0,0,.71.36c1.42,0,1.63,0,3-.06V.23A3.78,3.78,0,0,1,56.19.12a3,3,0,0,1,.75.09L57,1.4l1.78.12a6.3,6.3,0,0,0,.86,0A1.54,1.54,0,0,0,60.69,1a.27.27,0,0,1,.1-.09.13.13,0,0,1,.12,0A.19.19,0,0,1,61,1a.6.6,0,0,1,0,.12,2.35,2.35,0,0,1-.15.38s-.13.2-.29.43l-.35.56c-.11.17-.19.25-.32.26h-.17L59,2.63c-.26,0-.52-.08-.95-.12,0,.44,0,.44,0,.86a11.53,11.53,0,0,1-.23,2.07,6.54,6.54,0,0,0,1.59.2,2,2,0,0,0,1.47-.88l.06,0a.18.18,0,0,1,.22.16,2.84,2.84,0,0,1-.48,1,8.12,8.12,0,0,1-.72.72c-.23.2-.34.26-.47.24l-.22-.07L58.8,6.6a6.16,6.16,0,0,0-2.26-.31,10.93,10.93,0,0,0-.07,1.27l.35,0h.51c.16,0,.56,0,1,.09a10.16,10.16,0,0,0,1.43.12,1.72,1.72,0,0,0,.54-.12l.07,0a.16.16,0,0,1,.15.16l0,.07-.12.19a4.43,4.43,0,0,0-.24.4L59.92,9c-.05.09-.11.16-.17.17h-.06A3.35,3.35,0,0,0,59.26,9a1.33,1.33,0,0,0-.24,0l-.77-.09a7.84,7.84,0,0,0-1.77-.22l0,1.21c1.65.1,1.93.11,3.94.25a1,1,0,0,0,.53-.21c.09-.1.14-.12.22-.12s.17.06.18.19a1.47,1.47,0,0,1-.4.65,3.84,3.84,0,0,0-.27.32c-.29.34-.29.35-.78.37l-.36.08c-.09,0-.17,0-.48-.18a7,7,0,0,0-2.45-.5,3.82,3.82,0,0,0,2.27,2.44,1.53,1.53,0,0,0,1.53-.85c0-.09.07-.11.14-.1s.1,0,.12.18a2.59,2.59,0,0,1-.34,1.07,2.23,2.23,0,0,1-1.63,1.26c-.4,0-1-.49-1.34-1.21a18.52,18.52,0,0,1-.89-1.9c0,.83,0,1.6,0,1.86s0,.34,0,.41c0,.4,0,.66,0,.67a3.58,3.58,0,0,1,0,.39.83.83,0,0,1-.85.71.89.89,0,0,1-.8-1.08c0-.12,0-.39.12-.76a26,26,0,0,0,.18-3l-.41.87a14.78,14.78,0,0,1-1.48,2.82,1.41,1.41,0,0,1-1,.7c-.85,0-1.84-1.08-2.36-2.57,0-.15.12-.23.23-.17a.4.4,0,0,1,.12.11,2.39,2.39,0,0,0,1.75,1c.62,0,1.26-.58,2-1.8a2.76,2.76,0,0,0,.46-1,10.26,10.26,0,0,0-4.33.88.26.26,0,0,1-.14.07c-.12,0-.22-.13-.23-.3A2.46,2.46,0,0,1,50,9.94a.32.32,0,0,1,.15-.17.38.38,0,0,1,.2.07,1,1,0,0,0,.29.11,5.09,5.09,0,0,0,1.4-.11c.23,0,1.63-.08,2.09-.08h.92m-.36-4.54h.78a7.62,7.62,0,0,1,1.17.06,2,2,0,0,1-.15-.83,7,7,0,0,1,.13-1.12.85.85,0,0,0,0-.23,3.33,3.33,0,0,0-.11-.69l-.76,0H55c-.23,0-.32.1-.32.34,0,.08,0,.27,0,.46s0,.38,0,.71l0,.8c0,.24,0,.24,0,.52"/><path
    class="cls-1"
    d="M88.47,16.31a1.82,1.82,0,0,1,0-.2v-1c0-.2-.3-.27-.77-.2A14.2,14.2,0,0,1,86,15h-.4l-.39,0c-.3,0-.8,0-1.39,0l-1.2,0c-.47,0-1.9.07-2.11.1a4.61,4.61,0,0,0-1.45.56.48.48,0,0,1-.14,0,.27.27,0,0,1-.29-.27,1.36,1.36,0,0,1,0-.21,2.38,2.38,0,0,1,.18-.36,9.63,9.63,0,0,0,.49-.93c0-.14.09-.21.15-.22s.07,0,.21.06a1.15,1.15,0,0,0,.51.32,1.12,1.12,0,0,0,.32,0l.81-.09c0-.43,0-.72,0-.85l-.11-1.48V11a11.2,11.2,0,0,1,.07-1.32c0-.24,0-.44.07-.83H81a2.3,2.3,0,0,0-1.65.55.37.37,0,0,1-.3.12c-.11,0-.14,0-.15-.15V9.28l0-.13V9A.69.69,0,0,1,79,8.72l.33-.56a4.49,4.49,0,0,0,.24-.55c.08-.16.17-.23.25-.22a.52.52,0,0,1,.26.14c.23.2.25.21.5.21l.48,0a11.51,11.51,0,0,1,1.23,0h.57c2.65.08,5.65.13,7,.13H90a1.82,1.82,0,0,0,1.31-.44.32.32,0,0,1,.18-.06c.1,0,.16.06.17.2l-.24.5-.34.71L91,9c-.08.15-.15.19-.28.19s-.14,0-.4-.13a2.12,2.12,0,0,0-1.26-.21c-.82.05-.82.05-2,.05-2.16,0-2.87,0-4.6-.06a3.2,3.2,0,0,0-.06.42c0,.46.12.64.48.63h.39l.84.05.77,0c.38,0,.38,0,1.45,0l.76,0a3.29,3.29,0,0,0,1.56-.36.39.39,0,0,1,.15,0,3.39,3.39,0,0,1,1.5.81c0,.07-.08.18-.23.3a1.34,1.34,0,0,0-.35.35,2.88,2.88,0,0,0,0,.45s0,.16,0,.37v1.53c0,.09,0,.23.12,1.56a4.36,4.36,0,0,1,.06.89c0,.55-.26.84-.71.92s-.68-.06-.79-.39m-5.8-4.09a18.17,18.17,0,0,1,3-.22h2.08c.57,0,.72-.12.72-.56s-.11-.48-.37-.5c-.07,0-.3,0-.64,0h-.25l-.52,0L86,11a21.59,21.59,0,0,1-2.37-.08c-.81-.08-1,.07-1,.66a3.27,3.27,0,0,0,.1.62M88.45,14a.73.73,0,0,0,.11-.41c0-.44-.24-.62-.85-.62l-.53,0-.73,0H84.16a6.2,6.2,0,0,0-1.21.09c-.17.06-.18.08-.23.26s0,.26,0,.56c1,0,1.15,0,2.47,0,1.74,0,2,0,3.31.06"/><path
    class="cls-1"
    d="M86.48,2c-.08-.11-.14-.21-.18-.25a.42.42,0,0,1-.08-.14c0-.1,0-.1.27-.41l.4-.47.25-.26.11-.12a.37.37,0,0,1,.2-.09l.15,0,.3.21.27.19c.38.28.46.32.69.32l.29,0h.56L91,1l1.82,0C93,1,93,1,93.33.78L93.5.66c.35-.28.35-.28.45-.25a.56.56,0,0,1,.23.15c.31.2.39.25.82.56a.65.65,0,0,1,.24.27.82.82,0,0,1-.15.4c-.35.63-.38.93-.38,3.61,0,2.12.18,8,.28,8.9a5.72,5.72,0,0,1,.05.78,2,2,0,0,1-.35,1.17.67.67,0,0,1-.63.3c-.35,0-.58-.23-.67-.67a25.5,25.5,0,0,1-.15-2.59l0-1V10.56c0-.05,0-.23,0-.49,0-.46,0-1,0-1.55,0-1.94,0-2-.8-2a9.52,9.52,0,0,0-1.1.07,9.37,9.37,0,0,1-1.51,0h-.7a6.32,6.32,0,0,0-.75,0c-.09,0-.09,0-.4.21a1.12,1.12,0,0,1-.46.12c-.68,0-1-.46-1-1.64l0-.89,0-.9c0-.34,0-.56,0-.62A1.91,1.91,0,0,0,86.48,2M88.2,3.27l3.62-.08c.52,0,.81,0,1.5,0,0-.25,0-.42,0-.56s0-.29,0-.52l-.41,0H91.22L89.71,2a7.67,7.67,0,0,1-.9-.06c-.47-.07-.65,0-.67.3a6.62,6.62,0,0,0,.06,1m0,.89c0,.26,0,.48,0,.6s0,.42,0,.75l.09,0a7.94,7.94,0,0,1,1,0c.66,0,1.15,0,1.7,0s.84,0,1.06,0l1.08-.06a4.62,4.62,0,0,0,.15-1.19V4.06h-.81l-1.37,0H90.5l-.35,0-.38,0c-.93,0-.93,0-1.33,0l-.2,0"/><path
    class="cls-1"
    d="M75.44,1.92a.5.5,0,0,1,0-.14c0-.08,0-.08.44-.57l.27-.35.37-.41a.2.2,0,0,1,.15-.08.74.74,0,0,1,.26.14l.22.11.24.16a.35.35,0,0,0,.21.06l.16,0h.55l.51,0A23.17,23.17,0,0,1,81.54,1a.76.76,0,0,0,.69-.2l.39-.29.25-.19.1,0c.07,0,.14.05.31.2l.08.07.34.26c.7.59.7.59.71.69a1,1,0,0,1-.23.4c-.38.46-.45.87-.45,2.35l0,1.38c0,.94-.16,1.24-.66,1.24-.71,0-.78,0-1-.52l-2.5,0-2.22,0c0,1.89,0,2.34,0,4A39.67,39.67,0,0,1,77,15.86c-.1.56-.23.72-.63.76a.63.63,0,0,1-.68-.35,1.84,1.84,0,0,1-.34-1,3.19,3.19,0,0,1,.18-.89,8.41,8.41,0,0,0,.29-2.19c0-1.06.15-3.9.15-4.5V3.83c0-1.14,0-1.29-.52-1.91M82.3,3c0-.1,0-.23,0-.24V2.63c0-.6-.17-.77-.61-.77h-.4q-.45,0-1,0c-.2,0-.2,0-1.44-.11-.3,0-.64,0-.86,0-.45,0-.59.05-.69.24s0,.27,0,.31a5.15,5.15,0,0,0,0,.54l.78.08.48.05c.21,0,.33,0,.47,0,.35,0,.77.05,1.15.06h1.65l.42,0m0,.86c-1.85,0-2.07,0-2.81,0H78.39a5.24,5.24,0,0,0-1,.09l0,1.36,1.6,0h.86c.76,0,1.36,0,1.81.07s.52-.06.55-.29a2.58,2.58,0,0,0,0-.54V3.9Z"/><path class="cls-2" d="M101.14,4.54h0c11.7-1.94,27.51-3.12,44.92-3.12S179.28,2.6,191,4.53h0a.12.12,0,0,0,.12-.1v0a.12.12,0,0,0-.09-.11h0c-11.09-2.47-27.11-4-44.93-4s-33.84,1.56-44.94,4h-.06v0a.09.09,0,0,0,0,.08v0a.12.12,0,0,0,.12.09"/><path
    class="cls-3"
    d="M187.14,12c0-.09-.09-.09-.17-.1a.22.22,0,0,0-.21.12,2.39,2.39,0,0,1-1.35,1.31,3,3,0,0,1-1.35.28c-.72,0-1.19.07-1.51.07h-.24c-.19,0-.39-.08-.4-.55,0-.17,0-5.48,0-5.68,0-.38.11-.48.24-.54a1.18,1.18,0,0,1,.37,0l.23,0A.65.65,0,0,0,183,7a.43.43,0,0,0,.23-.07,1.55,1.55,0,0,0,.51-.78.19.19,0,0,0,0-.08.14.14,0,0,0-.12-.08.35.35,0,0,0-.19.09,2.53,2.53,0,0,1-1,.14L181,6.2c-.34,0-.86,0-1.05-.07a3.42,3.42,0,0,0-.53-.13.28.28,0,0,0-.23.09,1.64,1.64,0,0,0-.36.72.17.17,0,0,0,.08.16l.06,0c.13,0,.42-.12.58-.12h0a1.5,1.5,0,0,1,.42,0c.29.1.41.26.41.41v5.86c0,.17-.1.62-.2.66a.45.45,0,0,1-.22.05.46.46,0,0,1-.17,0,.64.64,0,0,0-.21-.07.11.11,0,0,0-.11,0c-.07.1-.2.44-.27.56a.27.27,0,0,0-.05.15.16.16,0,0,0,.16.17h.07c.15-.06.52-.1.68-.14a10.41,10.41,0,0,1,1.17-.05h3.13c.44,0,.9,0,1.22.06s.51.13.71.13h.06a.69.69,0,0,0,.45-.36,4.26,4.26,0,0,0,.27-.83,7.58,7.58,0,0,0,.1-1.31c0-.07,0-.14,0-.2"/><path
    class="cls-3"
    d="M174.58,13.41a.07.07,0,0,0-.08.05h0a.59.59,0,0,1-.63.39.67.67,0,0,1-.37-.08,3,3,0,0,1-.45-.75s-2.73-5.89-2.79-6a.1.1,0,0,1,0-.07c0-.07.07-.15.13-.2a.32.32,0,0,0,.16-.22.22.22,0,0,0-.09-.16c-.16-.14-.59-.71-.92-.75h0a.35.35,0,0,0-.25.17,2.16,2.16,0,0,1-.16.49l-3.59,6.94a1.66,1.66,0,0,1-.38.53.63.63,0,0,1-.44.15h-.08c-.3,0-.25.25-.51.67a.11.11,0,0,0,0,.08c0,.09.1.1.17.1a3.2,3.2,0,0,0,.66-.13,7.78,7.78,0,0,1,1.11,0,5.36,5.36,0,0,1,1.1.13h0c.24,0,.43-.39.49-.52a.91.91,0,0,0,.11-.34.16.16,0,0,0-.13-.16h0c-.17,0-.2.18-.57.18a1.55,1.55,0,0,1-.34,0c-.11,0-.15-.07-.15-.2a1.23,1.23,0,0,1,.1-.42,12.51,12.51,0,0,1,.73-1.45.35.35,0,0,1,.24-.12c.12,0,.85,0,1.34,0h.17l.45,0a1.67,1.67,0,0,1,.3.07l.08,0a.13.13,0,0,0,.11-.06v0c0-.12-.14-.28-.26-.51a3,3,0,0,1-.23-.48.16.16,0,0,0-.15-.12l-.09,0a1,1,0,0,0-.15.09s0,0-.14,0h-1.11s0,0,0,0l1.15-2.51,0,.06c0,.05,1.29,2.75,1.33,2.86a27.64,27.64,0,0,1,1.14,2.66v.06c0,.13-.09.17-.19.18a.19.19,0,0,1-.1,0l-.09,0c-.24,0-.31.37-.41.61a.19.19,0,0,0,0,.07c0,.09.08.12.15.12a2.58,2.58,0,0,0,.42-.11,4.61,4.61,0,0,1,.77,0h1.39c.23,0,.33.16.58.16h0c.31-.05.5-.92.57-1.19v0a.11.11,0,0,0-.11-.11"/><path
    class="cls-3"
    d="M162.23,5.65h-.06a.21.21,0,0,0-.2.14,1.12,1.12,0,0,1-.38.3,1.16,1.16,0,0,1-.52.12h-6.91c-.38,0-.65-.23-.91-.24s-.57.69-.75.93a.77.77,0,0,0-.18.43.36.36,0,0,0,.18.32.28.28,0,0,0,.17,0,1.08,1.08,0,0,0,.3-.08c.26-.08.53-.25.71-.29a3.46,3.46,0,0,1,.84-.11h1.71c.1,0,.12,0,.12.12v5.76a1.18,1.18,0,0,1-.17.77.54.54,0,0,1-.37.11h-.06c-.16,0-.37-.14-.47-.15h0c-.13,0-.14.11-.23.2a3.42,3.42,0,0,0-.3.48l0,.1a.11.11,0,0,0,.11.1h0a8.06,8.06,0,0,1,.86-.09c.4,0,.64,0,1.32,0,.49,0,.72,0,.88,0h.66a1.23,1.23,0,0,1,.29,0l.38.07c.14,0,.22-.09.31-.28a3.4,3.4,0,0,0,.19-.52v0l0,0a.12.12,0,0,0-.17,0,.56.56,0,0,1-.33.15h-.38a1.38,1.38,0,0,1-.33,0c-.15,0-.59-.09-.59-.79,0-.17,0-5.63,0-5.83s0-.11.12-.12h1.81a1.4,1.4,0,0,1,.88.25.52.52,0,0,0,.38.2h.07c.13,0,.5-.15.85-.84a2.67,2.67,0,0,0,.34-.91h0s0-.19-.13-.23"/><path
    class="cls-3"
    d="M148.19,13.8h0c-.18,0-.25.08-.45.1a2.55,2.55,0,0,1-.32.05.46.46,0,0,1-.23-.07.76.76,0,0,1-.5-.74V7.52c0-.3.15-.64.34-.66h.05a1.54,1.54,0,0,1,.42.09h0c.16,0,.26-.24.38-.39s.24-.32.24-.45a.09.09,0,0,0,0-.08A.13.13,0,0,0,148,6a1.23,1.23,0,0,0-.34.09,7.65,7.65,0,0,1-1,.07h-1.48a4.5,4.5,0,0,1-.9-.08l-.1,0c-.13,0-.15.12-.28.4a1.36,1.36,0,0,0-.16.45.1.1,0,0,0,.1.11h.07a2.28,2.28,0,0,1,.59-.11h.05c.31.06.56.13.56.41v5.6c0,.41-.07,1-.47,1.05h0a1.17,1.17,0,0,1-.33-.14h0c-.11,0-.16.12-.21.19s-.35.38-.36.54a.09.09,0,0,0,0,.08.57.57,0,0,0,.16,0c.21,0,.57-.07.82-.08s1.41,0,1.82,0h.1c.25,0,.9,0,1,0h.09a.57.57,0,0,0,.4-.17,1,1,0,0,0,.18-.48c0-.07,0-.15-.12-.15"/><path
    class="cls-3"
    d="M139.21,9.77l-.11,0c-.14,0-.24.12-.39.15a3.9,3.9,0,0,1-.62.06h-1.47a1.9,1.9,0,0,1-.56-.13.22.22,0,0,0-.12,0,.87.87,0,0,0-.76.55.22.22,0,0,0,0,.13c0,.13.12.19.25.19l.17,0a1,1,0,0,1,.24,0H136c.36,0,.55.19.55.47v1.32c0,.06,0,.15,0,.25a.55.55,0,0,0,.24.42c.25.2.58.63,1,.63h.06c.34-.05.33-.49.34-.86v-.09c0-.17-.06-1.33-.06-1.53v-.16a.39.39,0,0,1,.34-.45,1.07,1.07,0,0,0,.72-.45.45.45,0,0,0,.13-.26.17.17,0,0,0-.08-.15"/><path
    class="cls-3"
    d="M136.4,13.68c-.07-.06-.24-.25-.4-.25s-.2.16-.27.18a3.82,3.82,0,0,1-1.62.35,3.63,3.63,0,0,1-3.42-3.8,3.09,3.09,0,0,1,3-3.4,4.4,4.4,0,0,1,1.91.39,3.59,3.59,0,0,1,1.63,1.15c.2.25.35.7.74.7H138c.21,0,.26-.25.25-.48s-.05-.55-.05-.75v0a.88.88,0,0,1,.17-.57.25.25,0,0,0,0-.14.65.65,0,0,0-.2-.37c-.11-.11-.25-.27-.42-.27a.19.19,0,0,0-.15.07c-.1.12-.22.26-.38.26s-.26-.08-.51-.19a7.92,7.92,0,0,0-2.9-.49,4.5,4.5,0,0,0-4.79,4.53c0,2.39,1.9,4.14,4.92,4.14a6.16,6.16,0,0,0,2.47-.51h0c.11,0,.21,0,.29-.09a.06.06,0,0,0,0-.07c0-.15-.27-.27-.36-.35"/><path
    class="cls-3"
    d="M125.23,13.83a.81.81,0,0,0-.25.09,2.08,2.08,0,0,1-.39,0l-.24,0a.79.79,0,0,1-.82-.8c0-.17,0-5.48,0-5.68,0-.37.13-.6.36-.6h.44a.39.39,0,0,0,.25-.06,1.78,1.78,0,0,0,.32-.43.89.89,0,0,0,.12-.29.12.12,0,0,0-.07-.11h-.06c-.16,0-.49.13-.73.13s-1,.08-1.45.08a6.43,6.43,0,0,1-1.16-.06c-.16,0-.3-.14-.45-.14a.25.25,0,0,0-.22.12c-.11.16-.34.4-.35.58s.09.17.24.17c.42,0,.91,0,1,.17s.17.22.17.31v5.6a2.9,2.9,0,0,1-.06.66c0,.2-.14.33-.25.32h0a3.67,3.67,0,0,1-.54-.11.28.28,0,0,0-.22.12c-.17.21-.34.34-.35.53v0c0,.13.08.24.22.24h0l.13,0a6.71,6.71,0,0,1,1.57-.17h1a4,4,0,0,1,.68,0c.28,0,.46.14.6.14h.06c.17-.06.41-.5.49-.71,0,0,0-.05,0-.07a.1.1,0,0,0-.1-.09"/><path
    class="cls-3"
    d="M113.14,6.52a7.47,7.47,0,0,0-2.66-.45c-.9,0-1.65.12-2,.12a1.61,1.61,0,0,1-1-.25l-.09,0c-.14,0-.24.13-.43.33s-.35.38-.35.5a.14.14,0,0,0,.09.13c.21.11.37,0,.51.11s.37.2.37.68v5.22c0,.68-.07.9-.29,1s-.77.1-.79.42.31.45.72.45l.33,0a17.25,17.25,0,0,1,1.94-.14c.26,0,1.06.06,1.7.06a3.82,3.82,0,0,0,.64,0,5.18,5.18,0,0,0,3.15-1.43A3.88,3.88,0,0,0,116,10.27a4.3,4.3,0,0,0-2.87-3.75m-4.07.84c0-.23,0-.42.36-.46l.6,0a6.33,6.33,0,0,1,2,.27,3.7,3.7,0,0,1,2.3,3.43c0,3.09-2.32,3.32-3.2,3.32a8.85,8.85,0,0,1-1.75-.24c-.26-.11-.33-.1-.34-.47s0-5.68,0-5.68V7.36"/>
</svg>
